<svg width="305" height="225" viewBox="0 0 305 225" fill="none" xmlns="http://www.w3.org/2000/svg">
<path fill-rule="evenodd" clip-rule="evenodd" d="M298.169 71.8896C293.794 72.3204 289.42 72.7505 285.046 73.1813C264.096 74.7866 243.154 78.1392 222.365 80.1513C221.847 79.3064 220.834 79.4456 220.219 80.0327C218.144 79.8505 215.819 78.2602 213.94 79.9144C213.879 79.9058 213.818 79.8957 213.757 79.8899C210.411 73.4492 208.098 66.5796 205.853 59.7008C204.421 55.4716 202.493 51.3776 198.931 48.5381C192.852 44.3059 178.924 35.7237 171.785 36.0844C171.667 34.8026 171.071 33.4815 170.093 32.6279C172.249 28.9414 163.628 26.536 163.02 26.9633C163.41 14.6467 157.633 3.9504 144.896 1.4977C133.484 -0.887105 117.254 -1.28775 111.117 10.6728C110.442 10.5966 103.546 10.5606 102.879 10.6356C101.841 9.31783 90.4489 21.8047 95.1182 26.1519C53.3727 44.673 29.6362 42.463 18.0817 94.5308C16.5197 99.4221 16.4059 104.775 14.7564 109.557C8.88812 123.3 4.12834 137.934 2.94376 152.888C0.0827379 153.623 -0.246295 158.683 3.06764 159.414C4.33348 159.694 5.39203 160.077 6.31504 160.801C5.5935 173.056 8.54866 201.05 10.4106 200.964C14.2072 213.082 31.1421 216.502 43.1314 212.244C41.0646 216.143 43.1314 218.595 43.1314 220.679C86.2721 222.316 133.442 221.373 176.571 223.618C182.087 223.54 187.89 224.977 193.332 224.15C196.65 223.352 196.656 218.119 193.29 217.472L207.998 214.268C207.669 214.143 214.061 209.879 218.891 201.912C223.388 192.999 220.327 182.24 222.365 172.545C238.277 171.239 254.453 170.681 270.191 167.979C272.337 174.418 281.626 166.717 284.579 163.619C284.576 163.614 284.572 163.609 284.568 163.604C285.997 163.212 287.143 161.869 287.181 160.279C288.184 158.843 288.394 156.819 287.433 155.431C291.838 129.94 298.553 103.913 300.98 78.1819C301.838 77.9914 302.646 77.6141 303.331 77.0328L303.275 76.9772C304.436 75.6794 304.662 73.4393 302.727 72.3366C301.166 71.4463 299.863 71.7225 298.169 71.8896Z" fill="white"/>
</svg>
