<svg width="358" height="218" viewBox="0 0 358 218" fill="none" xmlns="http://www.w3.org/2000/svg">
<path fill-rule="evenodd" clip-rule="evenodd" d="M344.747 96.4033C347.948 94.7327 351.074 92.9175 354.15 91.0282C356.316 89.7325 354.398 86.4687 352.177 87.648C351.041 88.2513 349.909 88.8605 348.773 89.46C349.667 88.6903 350.496 87.8523 351.238 86.9389L351.187 86.8879C354.051 84.3225 350.372 79.4819 347.116 81.5893C344.243 83.671 341.345 85.795 338.048 87.1658C331.219 90.0611 323.687 90.5401 316.358 90.6237C313.676 90.4222 311.114 90.8868 308.511 91.4047C309.532 87.3119 312.085 84.2214 313.439 80.2576C314.439 76.2556 308.661 73.5296 306.614 77.3764C306.111 78.321 305.632 79.2766 305.164 80.2369C300.738 84.2618 293.348 83.9072 288.885 88.2287C286.342 90.4849 285.098 93.5463 284.607 96.6188C284.273 98.7052 284.792 100.797 283.53 102.645C277.43 111.271 267.792 124.906 262.898 134.399C259.432 111.841 250.178 83.9379 240.619 63.3105C237.457 56.7136 233.841 50.2676 229.093 44.6757C229.632 42.8108 227.732 39.5006 226.524 40.5197C222.807 35.9786 216.235 34.803 210.95 32.5455C203.817 29.4956 197.898 23.1562 194.989 15.9511C191.251 2.23034 182.049 0.487476 169.287 1.09388C157.073 1.07855 148.036 6.30181 145.371 18.7334C139.957 28.1689 127.174 26.6085 117.977 29.1064C111.237 30.6458 104.697 33.0261 98.4803 36.0478C91.565 29.489 66.7978 57.0149 64.5465 64.099C65.8718 64.3559 67.189 64.6651 68.4943 65.0418C69.6568 65.3779 69.1687 67.1336 67.9962 66.8526C66.5371 66.5021 65.0687 66.2609 63.5934 66.0935C63.5484 66.2346 63.509 66.3748 63.4796 66.5134C63.314 66.5021 63.1487 66.488 62.9831 66.4768C63.3503 66.668 63.7037 66.8898 64.0481 67.1758C64.8806 67.867 63.7968 69.2009 62.9122 68.6502C62.0787 68.0266 60.9872 68.1251 59.9875 67.9158C59.9281 69.9713 52.5928 67.6717 51.4534 66.9906C46.3893 66.3572 41.1796 67.0369 36.4521 64.595C30.1618 63.2705 23.8243 61.8058 17.6047 60.1189C15.9581 60.7607 14.4106 63.0574 15.7184 64.7427C16.454 65.5096 15.5084 66.7618 14.5821 66.2168C11.4756 64.3885 9.07309 61.5345 7.03621 58.4599C6.07746 57.4928 4.37559 57.7008 3.08746 57.2994C2.91528 57.6088 2.81371 57.9537 2.81527 58.3072C-2.64879 59.2065 1.24903 65.1735 3.9959 67.0328C2.53871 67.9815 2.4834 69.8392 2.6109 71.3906C2.30215 71.9432 2.19903 72.6281 2.46778 73.2473C3.49528 75.6147 5.71746 77.6085 7.40715 79.5266C9.27277 81.645 10.9362 83.7749 13.2062 85.4921C21.8587 92.0868 32.3003 95.7737 43.0121 97.2156C46.8156 97.7997 52.2865 98.6937 54.6415 101.909C54.0637 105.726 53.0028 109.386 52.0403 113.107C50.6943 118.047 50.7859 123.219 50.7681 128.255C50.58 128.104 50.2187 128.135 50.165 128.423C49.8518 130.511 49.619 132.645 48.35 134.399C47.2375 137.661 46.4972 141.141 46.0812 144.568C44.415 160.814 44.0172 177.539 47.774 193.533C49.2237 199.466 51.5815 205.105 54.794 210.297C55.7518 211.846 57.2918 212.299 58.6747 211.995C63.3028 214.399 69.1331 215.17 74.1215 214.559C91.1281 209.745 85.2025 221.337 109.047 217.787C150.206 212.545 191.801 222.847 232.872 216.799C233.883 224.611 247.125 222.37 251.725 219.067C265.517 208.816 272.365 176.359 279.286 159.893C284.044 146.916 292.011 123.93 302.444 115.222C305.573 112.775 309.354 111.487 313.138 110.448C327.259 106.809 341.435 103.368 355.583 99.8311C357.982 99.2403 357.551 95.1488 354.986 95.4114C351.581 95.7596 348.164 96.075 344.747 96.4033Z" fill="white"/>
</svg>
