<svg width="213" height="231" viewBox="0 0 213 231" fill="none" xmlns="http://www.w3.org/2000/svg">
<path fill-rule="evenodd" clip-rule="evenodd" d="M154.04 47.4999C146.477 40.4569 148.905 33.6636 146.377 25.0818C141.49 14.4637 131.408 4.00619 119.734 1.74104C113.904 -1.6781 106.285 0.260002 102.302 5.62153C98.5608 6.61429 98.4371 11.795 97.1865 14.8599C94.8751 20.8795 93.1081 27.0126 91.659 33.2662C46.6296 42.6554 12.0918 73.3628 4.89124 119.937C3.66025 126.705 2.65285 133.519 1.70654 140.332C1.15213 146.202 -1.78332 155.516 4.251 159.315C4.42359 163.525 4.9282 167.777 6.5288 171.741C7.14338 175.691 7.64006 179.666 8.93886 183.474C11.8022 190.066 12.2436 197.298 15.4592 203.869C17.7061 208.717 21.0047 212.609 25.0841 215.999C26.8075 217.511 29.1745 219.152 29.5365 221.519C29.4284 225.086 32.1307 230.242 36.3989 228.567C39.4281 229.708 42.6813 230.005 45.8901 229.981C100.268 227.627 154.76 227.428 209.14 230.06C211.047 230.149 212.857 228.317 212.778 226.416C211.911 205.684 209.77 185.011 206.402 164.536C198.887 122.139 190.858 74.7163 154.04 47.4999Z" fill="white"/>
</svg>
