<svg width="57" height="59" viewBox="0 0 57 59" fill="none" xmlns="http://www.w3.org/2000/svg">
<path fill-rule="evenodd" clip-rule="evenodd" d="M28.9744 57.8853C26.9211 57.0463 25.0889 55.6468 23.7495 53.8591C23.2838 53.2376 23.163 52.5813 23.2607 51.9811C23.3706 51.3061 23.7693 50.6944 24.313 50.2841C24.8584 49.8725 25.5406 49.6695 26.2002 49.773C26.7733 49.8629 27.3438 50.1772 27.7954 50.829L27.8897 50.9594C28.686 52.0384 29.7237 52.9237 30.9061 53.4943C32.0457 54.0443 33.3203 54.3011 34.6392 54.1518C37.1513 53.8676 38.8827 52.5069 40.723 50.6591C40.9511 50.4259 41.1794 50.1853 41.4087 49.9408C41.5536 49.7192 41.7546 49.5768 41.9778 49.502C42.2256 49.4191 42.5059 49.4237 42.7627 49.5135C43.0103 49.6 43.2317 49.7641 43.3801 49.9824C43.5212 50.1898 43.6012 50.4461 43.5752 50.741C43.4068 52.6559 42.4072 54.3648 40.9874 55.7067C39.4105 57.1971 37.3201 58.2281 35.3522 58.5897C33.1841 58.9881 30.9749 58.7027 28.9744 57.8853ZM36.375 28.3443C38.6816 29.7486 42.1962 33.023 39.7148 36.5044C36.7939 39.574 32.5886 36.0544 30.5163 34.4627C28.5947 33.2291 26.4357 36.4018 28.2185 37.8423C43.1932 48.9463 49.2703 28.7115 37.5416 26.6932C36.2503 26.4708 35.7707 27.9099 36.375 28.3443ZM9.5402 15.4274C9.79505 12.2591 14.6129 11.5396 15.0922 14.6748C15.5214 17.4833 15.0161 20.0633 13.7531 22.5919C12.5462 25.0075 9.51286 23.8805 9.28346 21.6808C8.97596 18.7322 9.38167 17.3983 9.5402 15.4274ZM46.2146 14.0248C46.8863 13.1437 47.8561 12.5422 49.0181 12.8821C52.6485 13.9446 51.5784 19.1067 50.3035 21.6193C49.6107 22.9838 47.3714 23.3298 46.3594 22.1284C44.7099 20.1692 43.92 16.2566 46.017 14.3267C46.0738 14.227 46.137 14.1263 46.2146 14.0248ZM13.7019 1.56368L14.2754 1.46315C16.0494 1.15585 18.2552 0.860577 19.5102 2.28905C20.1758 3.04655 20.4049 4.45447 19.5102 5.17954C17.9365 6.45529 16.1966 5.9609 14.3107 6.06889C12.7566 6.15823 11.2629 6.41582 9.76581 6.84444C6.48153 7.78458 3.80542 9.50089 1.0004 11.3855C0.632321 11.6326 0.256608 11.1612 0.432246 10.8164C2.05148 7.63987 5.18945 5.03055 8.33261 3.43998C10.0102 2.59101 11.846 1.88675 13.7019 1.56368ZM42.9052 0.140735L43.3441 0.230705C48.1207 1.23069 54.3265 3.22824 56.5884 7.92725C56.6746 8.59171 56.5835 8.73412 56.5094 8.82716L56.4848 8.85812C56.4238 8.93757 56.3751 9.04709 56.0875 9.13753C56.0077 9.11848 55.9271 9.09832 55.8457 9.07694C54.8089 8.8048 53.9886 8.42989 53.1944 8.04088L52.3333 7.616C51.3343 7.12539 50.3265 6.65264 49.2584 6.30364C46.979 5.55901 44.6345 5.03446 42.2537 4.75437C41.7376 4.69371 41.2407 4.51928 40.8487 4.22033C40.4766 3.93657 40.1923 3.54369 40.0627 3.02147C39.8947 2.34564 39.943 1.83397 40.3051 1.22427C40.5773 0.7664 40.9668 0.449035 41.4141 0.266792C41.8701 0.0810045 42.3892 0.037205 42.9052 0.140735Z" fill="black"/>
</svg>
