<svg width="308" height="221" viewBox="0 0 308 221" fill="none" xmlns="http://www.w3.org/2000/svg">
<path fill-rule="evenodd" clip-rule="evenodd" d="M113.912 2.8951C115.212 -0.381004 119.606 0.892508 119.116 4.33422C118.823 6.3958 117.697 8.57322 116.686 10.3801C115.862 11.8509 114.923 13.2863 113.65 14.3887C115.917 16.5099 118.27 18.5536 120.682 20.4942C123.315 22.6114 126.083 24.5629 128.945 26.3566C131.454 27.9297 134.077 29.3233 136.442 31.1182C138.641 32.7869 140.645 34.7938 141.664 37.4136C142.75 40.2034 142.278 43.0846 141.478 45.8726L141.387 46.1878C140.57 48.9499 139.155 52.2794 141.116 54.8818C142.115 56.2066 143.566 57.1449 144.819 58.204C145.933 59.1453 146.979 60.1691 147.938 61.2687C150.028 63.6658 151.729 66.363 152.802 69.3685L152.898 69.6415C153.818 72.302 154.49 75.5613 153.247 78.1734C152.89 78.9221 151.74 78.6788 151.541 77.9497C151.089 76.298 151.113 74.5682 150.734 72.8931C150.34 71.1511 149.685 69.4975 148.828 67.933C147.172 64.9065 144.928 62.3212 142.278 60.1356L141.484 59.4884C139.416 57.7864 137.516 55.9808 137.097 53.164C136.647 50.1503 137.851 47.2794 138.626 44.427C139.165 42.4391 139.341 40.5336 138.758 38.7372C138.046 39.9032 137.074 41.0098 136.306 41.997C134.775 43.9637 133.23 45.9183 131.688 47.8767C130.108 49.8848 128.567 51.9246 127.1 54.0172C126.443 54.9533 125.794 55.895 125.146 56.8377C124.66 57.5462 123.981 58.254 123.45 58.9767C123.579 59.3632 123.569 59.8087 123.336 60.1251C120.522 63.938 116.519 55.9823 115.475 53.9723C113.349 49.879 111.767 45.5303 109.634 41.4378C107.423 37.1955 104.907 33.0661 102.101 29.1931C100.405 26.8503 98.5029 24.6499 96.9507 22.2328C93.2939 25.5584 88.4819 27.7877 84.0621 29.8094C79.2059 32.0303 74.1608 33.8446 69.1818 35.7712L67.7111 36.3441C59.1321 39.7021 50.3436 43.3912 43.2128 49.3557C34.8336 56.3648 29.8764 66.1338 26.186 76.25C21.9377 87.896 18.4231 99.8563 15.1468 111.809C13.4702 117.924 11.8794 124.068 10.3838 130.231C9.06596 135.66 7.97356 141.144 6.44799 146.518C9.54201 146.408 13.0707 147.609 15.7123 147.956C27.751 149.536 39.6278 152.056 50.9938 156.418C52.3978 156.957 52.804 158.363 52.4983 159.503C53.3079 159.274 54.1169 159.041 54.9266 158.813C54.0395 157.45 54.4629 155.013 54.5327 153.502L54.5369 153.398C54.6086 151.385 54.8264 149.369 54.9676 147.36C55.2366 143.529 55.5867 139.726 56.0521 135.917L56.1709 134.964C56.6985 130.82 57.0884 126.652 57.664 122.515L57.732 122.041C57.456 120.983 57.1347 119.938 56.7974 118.897C55.8986 116.124 54.6301 113.514 53.5184 110.828C53.3872 110.512 53.8363 110.33 54.0462 110.52C55.9289 112.219 57.4245 114.374 58.6259 116.628C58.6468 116.521 58.6651 116.415 58.6869 116.308L58.824 115.632C59.1621 113.981 59.5733 112.245 60.5828 110.906C60.6903 110.764 60.9029 110.734 61.0047 110.906C61.9708 112.546 62.079 114.622 62.2276 116.488C62.3957 118.599 62.4169 120.736 62.3872 122.853C62.3293 126.989 62.0385 131.137 61.807 135.267C61.5798 139.325 61.1336 143.332 60.5586 147.35L60.4493 148.103C60.1682 150.016 59.938 151.952 59.5673 153.852L59.4625 154.369C59.2643 155.311 59.1424 156.639 58.7479 157.743C68.8993 154.903 79.0663 152.128 89.2527 149.402C96.6149 147.431 103.985 145.49 111.352 143.536C111.74 142.834 112.224 142.177 112.828 141.591C114.819 139.658 117.456 138.795 119.875 140.283C120.072 140.405 120.089 140.714 119.875 140.831C119.412 141.085 118.948 141.345 118.491 141.617L122.915 140.415C126.221 139.517 129.567 138.394 132.951 137.767C139.184 134.682 145.888 132.449 152.454 130.242L153.228 129.98C156.59 128.83 160.067 127.543 163.541 126.906C166.084 126.44 169.069 127.003 170.091 129.615C171.386 130.471 172.604 131.477 173.779 132.466C174.629 133.18 175.444 133.94 176.272 134.68L176.425 134.814C177.102 135.404 177.638 135.798 177.805 136.736C177.89 137.221 177.583 137.876 176.988 137.812C175.165 137.616 173.682 135.496 172.446 134.231C171.491 133.253 170.528 132.241 169.656 131.166C169.148 131.444 168.451 131.394 168.128 130.779C166.45 127.594 161.855 129.801 159.312 130.557L155.67 131.638C153.849 132.179 152.028 132.723 150.211 133.277C145.217 134.798 140.247 136.501 135.207 137.898C135.658 138.395 135.596 139.279 134.739 139.615C130.794 141.168 126.466 141.971 122.368 143.036C119.78 143.709 117.194 144.386 114.609 145.067C114.165 145.788 113.846 146.602 113.712 147.551C113.219 151.038 114.17 155.062 115.097 158.435L115.237 158.938C115.999 161.65 117.12 164.974 119.452 166.686C120.022 167.104 120.747 167.395 121.478 167.46C126.045 165.103 130.611 162.746 135.18 160.393C136.026 159.957 136.808 160.547 136.998 161.249C138.609 160.984 140.217 160.566 141.681 160.067C144.141 159.23 146.061 157.632 148.367 156.526C152.83 154.389 157.386 157.015 161.381 159.011L162.302 159.465C164.094 160.337 167.821 162.012 168.681 159.627C169.512 157.32 166.883 154.855 165.186 153.817C163.162 152.579 160.806 151.917 158.518 151.365C157.213 151.05 155.891 150.792 154.561 150.605C153.052 150.392 151.494 150.424 150.042 149.933C149.32 149.69 149.209 148.54 150.042 148.35C152.278 147.84 154.946 148.397 157.279 148.965L158.499 149.267C160.849 149.845 163.222 150.571 165.363 151.725C166.92 152.565 168.563 153.84 169.637 155.4C170.569 154.532 171.729 154.561 172.938 154.883L173.594 155.066C174.677 155.367 175.555 155.575 176.609 155.366C176.75 154.597 176.892 153.828 177.045 153.058C178.547 145.496 180.194 137.962 182.012 130.469C185.147 117.544 188.774 104.761 192.864 92.109L193.275 90.8443C194.218 87.9504 194.977 84.7975 196.498 82.1389C197.936 79.6251 200.24 78.1771 202.978 77.4102C206.085 76.5401 209.349 76.0847 212.519 75.497C213.226 75.3661 213.935 75.2417 214.642 75.1129C214.044 74.03 213.598 72.8008 213.196 71.8574L213.125 71.694C212.262 69.7188 211.486 67.7081 210.736 65.6866L210.176 64.1669C208.823 60.5074 207.426 56.908 205.524 53.4853C203.522 49.8833 200.866 46.9384 197.555 44.501C190.803 39.5311 182.666 36.9961 176.118 31.6848C175.85 31.4673 176.194 31.0952 176.466 31.2328C180.888 33.4609 185.661 34.9759 190.259 36.7899L191.167 37.1489C194.801 38.594 198.493 40.1673 201.639 42.507C205.146 45.1161 207.909 48.3563 209.985 52.2094C212.032 56.0075 213.341 60.2588 214.785 64.3156L215.171 65.3965C215.753 67.0174 216.354 68.6335 217.044 70.2109C217.591 71.4632 218.612 72.8928 219.076 74.3233C220.346 74.1024 221.615 73.8809 222.886 73.668C250.416 69.0582 278.253 66.3495 306.152 65.5571C307.244 65.5261 307.808 66.5707 307.648 67.5256C304.97 83.4041 302.591 99.337 299.98 115.228C298.841 122.163 297.678 129.093 296.489 136.02C295.886 139.529 295.19 143.025 294.619 146.539C294.158 149.378 293.824 152.238 293.033 155.011C292.323 157.496 291.235 159.894 289.446 161.79C287.519 163.835 284.829 164.824 282.121 165.292C275.246 166.478 268.195 166.963 261.265 167.753L224.367 171.964C224.906 176.879 224.947 181.718 224.699 186.691L224.558 189.405C224.443 191.589 224.305 193.775 223.992 195.936C223.6 198.647 222.364 200.942 220.543 202.967C218.87 204.827 216.839 206.413 214.863 207.933C212.811 209.512 210.692 211.036 208.28 212.012L207.967 212.136C205.851 212.965 201.882 214.248 198.99 213.779C199.368 215.679 200.1 217.721 199.451 219.601C199.15 220.474 198.012 220.909 197.315 220.166C195.934 218.694 195.826 216.75 195.499 214.83C195.158 212.832 194.865 210.826 194.604 208.816C194.1 204.929 193.708 201.007 193.588 197.087C193.465 193.061 193.512 189.03 193.728 185.009C193.84 182.944 193.977 180.881 194.239 178.829C194.35 177.954 194.464 177.078 194.594 176.205C194.642 175.887 194.695 175.57 194.751 175.254L191.439 175.629C186.361 176.197 181.281 176.711 176.167 176.791C175.561 176.8 175.095 176.523 174.791 176.12C174.466 176.65 173.902 177.03 173.093 177.027C165.951 177 159.3 174.658 152.805 171.897C149.531 170.506 146.307 168.999 143.028 167.619C139.968 166.331 136.696 165.412 133.709 163.961L125.86 168.09C125.803 168.293 125.729 168.485 125.651 168.646C125.14 169.692 124.132 170.26 123.103 170.687C122.115 171.098 121.093 171.226 120.096 171.122C114.144 174.25 108.19 177.376 102.233 180.494L96.2737 183.609C84.4012 189.809 72.5757 196.11 60.6285 202.165L59.7489 202.609C55.6223 204.684 51.1912 206.788 46.6117 208.357C46.5302 209.52 46.5816 210.651 46.6788 211.881L46.7021 212.149C46.8387 213.603 47.1314 215.425 45.9684 216.461C45.3633 216.999 44.2826 217.001 43.8712 216.189C43.1246 214.717 43.7949 212.397 44.0314 210.797C44.1153 210.229 44.2176 209.644 44.369 209.077C39.1189 210.644 33.7099 211.405 28.3674 210.524C23.1658 209.668 19.1371 206.382 15.8893 202.362C12.4617 198.12 10.026 193.176 8.71918 187.876C7.23191 181.846 7.1348 175.618 7.16972 169.441C7.20679 162.863 7.44941 156.253 8.24712 149.719C7.37313 149.513 6.40388 149.335 5.52071 149.396C5.08326 150.098 4.2347 150.394 3.46794 150.303C1.80054 152.147 6.02984 154.032 7.3814 154.504C7.85071 154.668 7.80047 155.432 7.25918 155.409L6.91821 155.393C4.8298 155.282 2.67218 154.924 1.44427 152.978C0.460309 151.417 0.755925 149.569 1.92889 148.297C2.70362 140.95 4.55574 133.796 6.27951 126.629C7.9711 119.595 9.85233 112.606 11.8463 105.652L12.7402 102.54C15.8796 91.6361 19.1611 80.6446 23.4917 70.1744C25.6542 64.9463 28.1453 59.8145 31.5221 55.256C34.6697 51.0065 38.3859 47.3703 42.6575 44.2647C50.6207 38.4746 59.9648 34.976 69.1457 31.6428L69.5567 31.4937C74.3144 29.7676 79.0605 28.0209 83.764 26.1508C87.9238 24.4969 91.909 22.4 96.0491 20.7212C95.9146 20.4763 95.7847 20.2287 95.6598 19.9783L95.5832 20.0429C95.5701 20.0533 95.5567 20.0634 95.5427 20.0729C95.1264 20.3624 94.5134 20.2201 94.1703 19.8953C93.2016 18.9785 93.5295 17.9608 94.1762 17.01L94.2604 16.889C95.0514 15.7777 95.7569 14.6028 96.4869 13.4513L96.944 12.7311C98.1693 10.8073 99.457 8.87066 101.091 7.28066C101.847 6.54389 102.676 5.9927 103.553 5.58192C103.478 5.42277 104.136 5.0974 104.323 5.26116C107.104 4.24051 110.303 4.45435 113.334 4.73578M222.582 172.167L218.716 172.608C214.463 173.093 210.208 173.563 205.952 174.027L196.709 175.035C196.686 175.563 196.622 176.08 196.61 176.479C196.55 178.537 196.505 180.595 196.462 182.653C196.377 186.779 196.47 190.909 196.741 195.026C197.004 199.016 197.349 203.007 197.887 206.969L197.997 207.762L198.06 208.178C198.499 208.221 198.929 208.43 199.287 208.859C200.069 209.795 202.9 208.885 204.006 208.49C205.824 207.842 207.536 206.745 209.116 205.646C210.659 204.573 212.048 203.321 213.383 202.002L214.475 200.919C215.561 199.836 216.649 198.683 217.315 197.32C218.218 195.473 218.334 193.206 218.599 191.194C218.925 188.719 219.313 186.245 219.723 183.783M110.353 146.192L109.952 146.298C95.3856 150.18 80.8407 154.176 66.2292 157.887C58.9984 159.724 51.7333 161.427 44.4936 163.228L43.3215 163.522C37.6102 164.97 31.8303 166.712 27.4567 170.867C27.2952 171.02 27.0609 170.785 27.2128 170.622C31.9264 165.59 38.6303 163.459 45.0671 161.613C46.2569 161.271 47.4483 160.938 48.6384 160.598C39.8845 157.469 30.9924 154.745 21.8951 152.803C19.5525 152.303 17.1827 151.936 14.842 151.434C13.2095 151.084 11.6153 150.577 10.0001 150.157L8.7296 149.837L8.71273 153.864C8.69158 159.568 8.70168 165.267 8.99182 170.97L9.04675 172.027C9.38527 178.373 9.91368 184.852 12.1594 190.836C13.9842 195.699 16.8929 200.281 20.6967 203.823C22.6214 205.615 24.6907 207.01 27.2487 207.699C29.6237 208.338 32.1121 208.413 34.5536 208.243C46.2646 207.423 56.6893 201.043 66.8621 195.76C83.5015 187.12 100.143 178.483 116.799 169.876C116.349 169.567 115.925 169.212 115.539 168.812C113.305 166.498 112.127 163.331 111.353 160.264C110.53 156.999 110.037 153.5 109.98 150.13M131.547 173.212C131.694 173.132 131.864 173.232 131.871 173.398C131.922 174.674 131.219 175.932 130.694 177.082L130.638 177.204C130 178.628 129.302 180.033 128.579 181.415C127.134 184.178 125.633 186.911 124.067 189.605C120.916 195.025 117.416 200.217 113.278 204.936C112.343 206.002 110.806 204.635 111.406 203.487C114.297 197.954 117.669 192.729 121.139 187.55C122.876 184.957 124.612 182.361 126.367 179.78C127.098 178.703 127.84 177.63 128.601 176.573L129.06 175.94M304.308 68.7263C289.69 69.1691 275.09 70.1252 260.542 71.6236C247.012 73.017 233.532 74.8718 220.128 77.1841C217.328 77.6669 214.532 78.1697 211.739 78.6922L210.064 79.0081C207.271 79.5391 203.858 79.7581 201.372 81.2547C198.75 82.8324 198.041 86.1297 197.169 88.8488C196.143 92.0465 195.143 95.2535 194.171 98.4682C190.308 111.232 186.78 124.106 183.633 137.066C182.071 143.498 180.684 149.967 179.224 156.423C177.926 162.159 176.494 167.831 174.999 173.509C175.183 173.365 175.409 173.256 175.682 173.198C183.11 171.613 190.692 170.924 198.231 170.048L198.961 169.963C206.76 169.043 214.559 168.13 222.363 167.25L274.029 161.422C277.077 161.079 280.341 161.032 283.306 160.212C288.348 158.817 289.53 153.164 290.375 148.662L290.401 148.526C292.951 134.923 294.981 121.203 297.36 107.566M176.201 157.697C174.195 157.564 171.45 155.722 169.928 155.854C170.727 157.198 171.087 158.732 170.627 160.369C169.345 164.926 163.55 162.568 160.759 161.176C158.47 160.034 156.26 158.637 153.727 158.102C150.856 157.497 148.912 158.642 146.487 159.961C144.495 161.045 142.326 161.823 140.095 162.226C138.909 162.44 137.782 162.463 136.658 162.379C136.59 162.435 136.514 162.486 136.427 162.532L135.832 162.845C138.522 162.968 141.262 163.801 143.765 164.563C146.359 165.353 148.906 166.305 151.439 167.278L153.931 168.239C160.077 170.599 166.44 172.841 173.093 172.822C173.571 172.82 173.963 172.953 174.271 173.17M164.978 143.418C166.96 143.175 168.789 143.436 170.372 144.729C172.282 146.29 173.565 148.877 176.31 149.047C177.111 149.096 177.297 150.225 176.501 150.461C174.458 151.068 172.803 149.959 171.411 148.52L170.475 147.539C169.099 146.11 167.83 145.005 165.495 145.09C162.995 145.182 160.49 145.761 158.006 146.056C155.192 146.39 152.379 146.674 149.556 146.92C149.425 146.931 149.402 146.724 149.525 146.694L152.687 145.904M163.065 135.293L163.392 135.26C166.27 134.98 168.901 134.969 171.471 136.521L171.964 136.82C174.281 138.233 176.803 139.897 178.252 142.184C178.49 142.558 178.098 142.999 177.701 142.903C174.916 142.233 172.88 140.184 170.538 138.65C167.91 136.929 165.195 137.213 162.198 137.48C159.296 137.739 156.396 138.095 153.523 138.58C150.823 139.035 148.115 139.754 145.388 139.983L145.389 139.978C145.077 139.977 144.899 139.508 145.217 139.349C147.984 137.963 151.19 137.307 154.2 136.674M250.483 106.767C250.205 105.433 251.842 104.814 252.6 105.872L252.761 106.096C254.4 108.347 256.77 111.172 256.649 114.036C258.09 114.068 259.583 114.945 260.144 116.249C260.404 116.852 260.492 117.567 260.434 118.307C261.744 118.409 263.171 119.271 263.972 120.11C265.299 121.502 265.403 123.468 264.452 125.094C262.376 128.638 257.843 129.927 254.016 130.215L253.879 130.225C249.926 130.499 244.23 130.425 241.52 127.024C238.905 123.743 241.795 121.086 244.758 119.644C243.987 118.937 243.587 117.924 243.963 116.856C244.622 114.979 246.951 114.253 248.267 112.948C249.87 111.357 250.93 109.174 250.508 106.892M252.656 109.652C252.22 111.552 251.149 113.29 249.657 114.667C249.087 115.194 248.463 115.663 247.8 116.065L247.72 116.112C247.132 116.443 245.686 117.064 245.797 117.807C245.912 118.571 248.268 119.766 248.91 119.767C249.056 119.767 249.139 119.996 248.99 120.062C247.826 120.578 246.809 120.798 245.671 120.254C244.911 121.032 244.172 121.838 243.441 122.636C242.147 124.049 242.59 125.541 244.118 126.593C246.575 128.284 250.308 128.243 253.174 128.12C256.059 127.996 259.142 127.351 261.395 125.424L261.493 125.338C262.718 124.246 263.836 122.395 261.961 121.343C261.227 120.931 260.433 120.955 259.736 120.755C259.083 122.038 258.025 123.065 256.733 123.263C255.69 123.424 254.971 122.108 255.92 121.478L256.134 121.345C257.326 120.582 258.343 119.407 258.316 117.876C258.298 116.813 256.818 115.471 255.854 116.47L255.81 116.517C255.004 117.429 253.583 116.28 254.113 115.27L254.139 115.224M64.5277 56.8133C64.5241 56.585 64.8442 56.4996 64.956 56.6971C66.8284 60.0009 67.8071 64.0506 68.8045 67.6905C69.8492 71.5034 70.6925 75.3549 71.4501 79.2348C72.9845 87.0912 73.8021 94.9025 73.8576 102.91C73.8652 104.053 72.0082 104.357 71.8266 103.186C70.6205 95.3969 69.465 87.6 68.2498 79.8133C67.6383 75.8969 66.9267 71.9956 66.2457 68.0908M83.0637 62.5677C82.9258 62.1121 83.5869 61.9597 83.756 62.3763C87.5135 71.627 88.786 82.1107 86.3736 91.8702C86.0045 93.3631 83.8243 92.7163 84.1028 91.2422M131.532 54.3479C131.513 54.0068 131.954 53.9531 132.12 54.1878C133.901 56.7038 134.639 60.0733 137.763 61.3735C139.323 62.0227 141.078 61.9097 142.456 63.0062C143.377 63.7396 144.083 64.8973 143.392 66.008C143.169 66.3668 142.545 66.5466 142.242 66.1567C141.8 65.5886 141.566 64.9083 140.966 64.4825C140.12 63.8819 138.978 63.8447 138.008 63.5623C136.753 63.1973 135.646 62.5586 134.74 61.6095M161.277 12.3837C161.46 12.29 161.636 12.3499 161.754 12.5091C161.921 12.7358 161.901 12.9564 161.695 13.1119C161.969 13.6738 162.293 15.0816 162.34 15.2865C162.527 16.1173 162.726 16.9432 162.935 17.7684C163.356 19.4328 163.725 21.11 164.146 22.7749C164.593 24.5397 165.125 26.2858 165.717 28.0066C165.755 28.118 165.797 28.2318 165.841 28.3472L165.909 28.5216L165.925 28.4951C166.046 28.3043 166.296 28.4377 166.266 28.6392C166.239 28.823 166.202 29.0058 166.171 29.1895L166.233 29.3541C166.62 30.3997 166.885 31.5009 166.175 32.4235C165.909 32.7685 165.616 32.9729 165.252 33.0337C164.667 34.9662 163.934 36.8628 163.149 38.6842L162.918 39.2161C161.764 41.8738 160.532 44.4965 158.693 46.7591C156.685 49.2293 153.924 50.916 152.175 53.6228C151.361 54.8819 150.795 56.2058 150.335 57.6277L150.163 58.1674C149.836 59.1731 149.46 60.148 148.519 60.7379C148.219 60.9259 147.769 60.866 147.527 60.6095C145.598 58.5629 147.618 54.7415 148.781 52.7601C150.398 50.0047 152.738 48.2421 155.081 46.1633C157.607 43.9226 159.218 40.9252 160.776 37.9723C161.731 36.1632 162.652 34.3152 163.622 32.4982C162.609 31.5997 162.284 29.8149 161.941 28.5744L161.91 28.4632C161.342 26.4766 160.891 24.4383 160.606 22.3912C160.332 20.4228 160.218 18.4828 160.29 16.5034L160.311 15.9992M165.045 21.7521C164.821 21.4442 165.192 21.0955 165.499 21.1597C167.367 21.5471 169.194 22.6812 170.87 23.5983L171.049 23.6957C172.388 24.4195 173.734 25.3062 174.437 26.7125C175.202 28.2408 175.139 30.0012 175.034 31.6622L175.024 31.8176C174.897 33.8094 174.876 35.879 174.456 37.8349C174.241 38.8359 173.337 39.1179 172.564 38.8813C171.644 41.7937 169.061 43.9394 167.174 46.2376C164.768 49.1675 165.221 53.1232 165.472 56.6518C165.574 58.0805 163.802 58.4867 162.89 57.7244L160.786 55.9725C160.436 55.68 160.086 55.387 159.738 55.0929C159.439 54.8408 159.143 54.5867 158.849 54.3295L158.411 53.9411C158.216 53.7665 157.358 52.8052 157.107 52.7652C156.499 52.6684 155.056 54.2746 154.562 54.7784L154.499 54.8413C153.569 55.7559 152.729 56.74 151.946 57.7837C151.802 57.9754 151.52 57.8163 151.623 57.5948C152.325 56.088 153.14 54.6475 154.108 53.2991L154.304 53.0307C154.948 52.16 155.813 50.6226 156.95 50.3654C158.339 50.0516 159.725 51.4481 160.735 52.2232L160.799 52.2718C161.28 52.6334 161.755 53.0015 162.229 53.372C162.18 50.7448 162.511 48.0903 163.863 45.8262C164.817 44.2295 166.245 43.0469 167.468 41.6748C168.829 40.1469 169.54 38.269 170.772 36.6778C170.931 36.4732 171.149 36.3629 171.386 36.3279C171.433 35.0486 171.621 33.7567 171.766 32.4913L171.809 32.1125C171.955 30.7376 172.302 29.0582 171.631 27.7706C170.997 26.5544 169.542 25.6959 168.465 24.8707L167.585 24.1864M104.416 7.21398C103.854 7.54027 103.328 7.94614 102.851 8.45339C101.35 10.0507 100.277 12.0386 99.232 13.9509C98.6695 14.9807 98.1273 16.022 97.5603 17.0494C97.3137 17.4964 97.06 17.9385 96.8036 18.38C96.6851 18.5834 96.3328 18.9878 96.1582 19.2369C96.3522 19.5096 96.5528 19.778 96.7574 20.0436C96.8355 20.1449 102.221 26.029 104.098 28.3319C106.973 31.8593 109.543 35.5852 111.739 39.5732C113.891 43.4785 115.528 47.6134 117.521 51.5943C118.518 53.5874 119.632 55.5663 121.052 57.2911C121.107 57.3584 121.165 57.422 121.221 57.4884C121.763 56.0201 123.151 54.4481 123.833 53.5454L123.897 53.4602C125.444 51.3691 127.077 49.341 128.746 47.3473C130.27 45.5268 131.834 43.7456 133.434 41.9938L134.037 41.3383C135.152 40.1299 136.569 38.3218 138.202 37.4585C138.027 37.1457 137.824 36.8363 137.591 36.5309C136.061 34.5259 133.899 33.0708 131.765 31.7579L130.381 30.9136C125.165 27.7255 120.03 24.3895 115.501 20.2471C113.105 18.0553 110.743 15.7593 108.729 13.2027L108.017 12.2988M113.12 5.63569C110.677 5.84123 108.039 5.79238 105.782 6.59059C107.789 8.49334 109.696 10.5479 111.656 12.4825C111.83 11.174 112.187 9.88145 112.489 8.60548" fill="black"/>
</svg>
