<svg width="151" height="167" viewBox="0 0 151 167" fill="none" xmlns="http://www.w3.org/2000/svg">
<path fill-rule="evenodd" clip-rule="evenodd" d="M34.7071 1.13818C37.3456 0.312152 39.0296 1.50133 40.231 3.34367C40.4958 3.29197 40.7521 3.29533 41.0374 3.36417C41.108 3.3813 41.2787 3.44586 41.4079 3.49664C41.5078 3.53855 41.5979 3.58934 41.6847 3.64318L41.7363 3.61596C41.9342 3.39966 42.1423 3.20233 42.3668 3.04324C42.8714 2.68591 43.3913 2.58189 43.8846 2.65532L44.1131 2.57118C46.0662 1.88956 48.1836 2.2059 49.5078 3.89099C49.764 4.21651 49.9711 4.57904 50.148 4.96146C50.5451 5.09179 50.9177 5.28025 51.2388 5.51215C51.4642 5.40599 51.7025 5.31665 51.9575 5.25088C53.3984 4.8807 54.9122 5.23007 56.0864 6.11484C56.6582 6.54529 57.0788 7.08435 57.3977 7.6999C57.7609 7.78525 58.1198 7.93883 58.4561 8.14503C58.7451 8.00094 59.0386 7.86571 59.3395 7.77302C60.4395 7.43465 61.6195 7.31013 62.7643 7.39549C65.2313 7.57873 67.6172 10.4009 65.9685 12.8244L65.9173 12.8977C65.708 13.1899 65.526 13.4919 65.3573 13.7987C65.9478 14.056 66.5166 14.4002 67.0419 14.8316C69.6118 16.9411 69.8431 20.1931 69.3625 23.2609L69.342 23.3886H69.3482C70.7136 23.5184 71.8925 24.9468 71.0858 26.2902L71.0465 26.3531C69.9545 28.0428 69.0186 29.9093 67.9754 31.6874C65.0885 32.7297 62.3049 34.0135 59.6838 35.5688C58.0511 37.0012 56.4966 38.5156 55.1291 40.2004C54.4464 41.0417 53.8193 41.9323 53.2429 42.8556C53.7038 43.0774 54.2738 43.0661 54.7552 42.6194C59.0374 38.645 64.211 35.8558 69.7196 33.9865C70.1164 33.8516 70.3766 33.5977 70.5226 33.2973C72.9681 32.5994 75.4567 32.0582 77.97 31.6752C78.6628 31.0141 79.3885 30.382 80.0783 29.7236C80.9589 28.8835 82.0619 28.8958 82.886 29.4235C83.2953 29.2366 83.714 29.0716 84.139 28.9234L84.4026 28.8333C84.5126 28.7972 84.6177 28.7553 84.7258 28.7223C87.675 27.8194 90.3719 28.1546 93.2728 28.8965L93.6443 28.9934C94.9965 29.3527 95.8475 29.2952 97.1571 28.9645L97.3046 28.9267C98.6959 28.5632 100.184 28.294 101.606 28.6767C103.094 29.0773 104.082 29.9681 105.095 31.0444L105.197 31.1526C105.67 31.6594 105.943 31.7147 106.562 31.7024L107.225 31.6827C109.728 31.614 112.179 31.7197 114.054 33.6586C114.747 34.3756 115.491 35.3904 115.937 36.3166L116.002 36.4548C116.022 36.4998 116.041 36.5374 116.058 36.5711C116.327 36.5276 116.745 36.3572 116.944 36.3184C119.672 35.7885 121.948 36.605 123.7 38.7579C124.083 39.2291 124.662 40.1542 125.063 40.6627C125.203 40.782 125.336 40.9099 125.461 41.0442C126.119 41.4648 127.051 41.4382 127.788 41.5857C129.798 41.9865 131.946 42.7519 132.968 44.6674C133.395 45.4668 133.553 46.3415 133.733 47.2152C134.409 47.6597 134.938 48.3004 135.349 48.9939C135.849 49.8359 136.061 50.8672 136.637 51.6623C137.055 52.2399 137.693 52.5483 138.301 52.9013L138.533 53.0378C140.333 54.1116 141.743 55.3033 142.336 57.4072L142.387 57.5943C142.483 57.9166 142.821 58.8364 142.527 58.6982C142.78 58.838 143.21 58.8873 143.441 58.9638C144.69 59.3777 145.776 60.0465 146.441 61.221C146.948 62.1149 147.04 63.0467 147.185 64.0321L147.246 64.43C147.262 64.5262 147.281 64.638 147.3 64.7464L147.32 64.853L147.324 64.8555C147.55 64.9534 147.772 65.0595 147.99 65.174C149.026 65.7843 149.733 66.8438 149.733 68.0703C149.733 68.6656 149.548 69.1294 149.277 69.5433C149.496 69.875 149.665 70.2283 149.793 70.6221C150.044 71.3909 150.062 72.2316 149.977 73.027C149.876 73.9816 149.631 74.8507 149.343 75.7624C149.232 76.1142 149.187 76.6059 149.02 76.9418C149.329 77.3355 149.512 77.8168 149.455 78.2916C149.374 78.9708 149.064 79.7647 148.45 80.1456C148.15 81.6293 147.503 83.1456 146.867 84.3586C146.794 84.4993 146.705 84.6248 146.608 84.7288C146.696 89.5718 146.342 94.4487 146.317 99.2852C146.29 104.55 146.4 109.819 146.583 115.078C146.892 123.794 147.994 132.807 145.425 141.306C143.324 148.263 139.114 154.234 133.47 158.762C127.691 163.394 120.723 166.074 113.325 166.494C109.562 166.704 105.734 166.276 102.093 165.3L101.704 165.194C98.1815 164.225 94.1011 162.744 91.5091 160.151C90.1407 158.781 91.5244 155.878 93.5312 156.676C95.5198 157.468 97.3039 158.64 99.2769 159.466C101.039 160.203 102.879 160.769 104.742 161.185C108.477 162.027 112.439 162.21 116.236 161.687C129.945 159.809 140.627 148.407 142.734 134.887C143.318 131.143 143.307 127.337 143.268 123.554L143.224 119.409C143.191 115.941 143.178 112.471 143.306 109.005C143.467 104.545 143.782 100.087 144.204 95.6449L144.423 93.3336C144.684 90.629 144.977 87.9041 145.483 85.2366C145.069 85.2584 141.798 79.6548 139.983 76.5236C139.321 75.9974 138.762 75.3436 138.546 74.4977C138.501 74.3212 138.478 74.1431 138.463 73.9647C138.069 73.3446 137.654 72.7404 137.215 72.1542L137.119 72.1113C137.046 72.0777 136.988 72.0496 136.955 72.0306C135.997 71.487 135.198 70.6634 134.651 69.7089C134.467 69.387 134.315 69.0511 134.193 68.7075C133.412 67.9405 132.596 67.2087 131.738 66.5225C131.654 66.4552 131.567 66.3922 131.482 66.3258C130.39 65.9177 129.431 65.3028 128.732 64.4171C128.44 64.236 128.146 64.0585 127.849 63.8848C126.959 63.8765 126.06 63.6688 125.185 63.3087C123.585 62.6503 122.306 61.3492 120.698 60.7462C118.998 60.1089 117.206 61.5572 115.4 61.2959C114.938 61.2292 114.481 61.0888 114.056 60.885C113.038 61.9644 111.959 62.9819 110.768 63.8725C109.04 65.1654 107.273 65.7562 105.271 66.3402C104.278 67.2834 103.167 68.1978 101.827 68.3321C98.7255 70.8151 95.4086 72.9096 91.9184 74.8541C91.357 75.1668 90.7989 75.3078 90.2693 75.3115C89.1745 75.9998 87.9795 76.5294 86.7171 76.8959C86.3215 77.0106 85.9137 77.0348 85.5127 76.9855L84.4173 77.8792C83.6549 78.5008 82.8417 78.7979 82.0637 78.8172C81.5903 79.1803 81.0997 79.5239 80.5948 79.8543C80.0538 80.2089 79.3522 80.3557 78.6472 80.3129C77.5705 81.3678 76.1742 81.4785 75.0049 80.9927C74.8442 81.0869 74.679 81.1763 74.4933 81.2641C74.241 81.3837 73.9777 81.4846 73.7092 81.5663C72.4898 82.8825 70.705 83.5726 68.9165 83.3922C67.5811 84.2114 66.0266 84.6376 64.507 84.5419C64.2751 85.7081 64.0833 86.8786 63.9211 88.0531L63.9045 88.9135C63.9027 89.0529 63.9024 89.1615 63.9043 89.2331L63.9052 89.2615C64.054 93.0334 64.1352 96.8071 64.2821 100.58L64.2956 100.877C64.4629 104.173 65.2725 110.182 60.4355 110.051C58.633 110.003 56.8447 108.673 55.4412 107.58L55.2433 107.426C55.1358 107.342 55.0255 107.256 54.9147 107.169C53.8657 107.032 52.8314 106.777 51.7721 106.738C50.4648 106.692 49.0902 106.827 47.8164 107.123C45.5683 107.646 43.3934 108.672 41.9272 110.528C41.7989 110.691 41.6798 110.862 41.5668 111.033C41.4629 111.385 41.2857 111.709 41.0505 111.991C39.6638 115.114 40.4644 119.242 41.9975 122.099C43.8242 125.502 46.7148 127.855 50.3496 129.04L50.532 129.099C53.0153 129.876 53.9653 131.381 55.3154 133.474C56.58 135.438 58.0309 137.267 59.5888 139.005C62.6036 142.367 66.8345 145.142 68.5876 149.398C68.9419 150.254 67.9278 151.062 67.1427 150.842C64.0668 149.976 61.9103 147.783 59.6743 145.601C58.1269 144.09 56.6387 142.519 55.2424 140.869C54.9495 141.004 54.6272 141.095 54.2915 141.136C52.8101 141.317 51.2822 141.242 49.9852 140.442C49.3874 140.497 48.7646 140.289 48.3021 139.865C47.8778 139.475 47.5119 139.052 47.2028 138.603C46.733 138.644 46.2717 138.657 45.8316 138.584C45.6193 138.564 45.4137 138.508 45.2252 138.416C44.8752 138.277 44.5431 138.064 44.2383 137.736C43.6207 137.072 43.3839 136.134 43.4979 135.243C43.3757 135.217 43.2544 135.186 43.1347 135.145C42.3124 134.866 41.6795 134.313 41.2751 133.56C40.5514 133.153 39.8999 132.602 39.4066 132.016C38.8057 131.304 38.3524 130.5 38.0861 129.614C37.8109 129.485 37.5436 129.337 37.2876 129.163C35.4533 127.92 34.4032 125.587 35.1234 123.429L35.1479 123.361C35.1845 123.264 35.2507 123.098 35.3318 122.911C35.3202 122.759 35.3079 122.607 35.2997 122.455L35.2743 121.995L34.9069 121.839C33.0741 121.109 31.8352 120.124 31.615 118.058C31.5691 117.631 31.7347 117.196 31.9959 116.832L31.9946 116.717C31.8755 116.655 31.7622 116.592 31.6623 116.528C30.6631 115.889 30.0492 114.744 30.1179 113.559C30.181 112.479 30.7782 111.619 31.4497 110.823L31.6416 110.599C31.6575 110.581 31.6753 110.561 31.6944 110.539L31.2505 110.399C30.9625 110.308 30.6987 110.216 30.5089 110.11C29.7746 109.698 29.1521 109.141 28.7681 108.433C28.7122 108.345 28.6554 108.259 28.6041 108.165C28.1083 107.259 28.0435 106.098 28.3634 105.126C28.4012 105.011 28.4501 104.903 28.5002 104.796C27.1501 104.319 26.1106 103.334 25.9854 101.519C25.9362 100.805 26.0923 100.093 26.4316 99.4841C26.3565 99.0738 26.3409 98.6486 26.3895 98.2279C25.9145 97.7785 25.5455 97.237 25.3806 96.5765C25.0687 95.3286 25.6396 94.1412 26.4882 93.0524C26.1741 92.1915 26.158 91.2201 26.5166 90.3534C26.3785 89.9208 26.3 89.4634 26.2957 88.9938C26.2862 87.954 26.6061 87.0854 27.1226 86.3466C26.3965 85.4575 26.0517 84.276 26.4805 83.1688C26.7857 82.382 27.1345 81.6621 27.5365 80.9951C27.3254 80.4879 27.2026 79.9198 27.2026 79.2837C27.2026 78.1395 27.6309 77.233 28.2861 76.4911C28.0017 75.1362 28.5799 73.4859 29.8402 72.8894C30.3152 72.6642 30.9512 72.4292 31.6519 72.2463C31.9149 71.4233 32.1895 70.6037 32.4794 69.7899C32.9361 68.509 33.4272 67.2458 33.9477 65.9972C33.6481 66.26 33.3338 66.5051 33.0088 66.7272C31.9809 68.036 30.6182 69.1698 29.4731 69.8481C27.2029 71.1929 24.6065 70.3951 23.4858 68.1449C22.4326 68.9324 21.1686 69.3986 19.82 69.2392C18.2909 69.0584 16.8928 68.0666 16.511 66.5195C16.4557 66.2955 16.4224 66.0535 16.419 65.81C15.5421 66.4353 14.6245 67.0108 13.618 67.3403C12.336 67.76 11.0274 66.7532 10.8582 65.4989C10.7913 65.0017 10.8841 64.5624 11.0818 64.1913L10.9566 64.142C10.9358 64.1333 10.9151 64.1242 10.8945 64.1145C10.2222 63.7991 9.7002 63.2209 9.45216 62.5539C7.99635 63.1181 6.32977 62.4569 5.86792 60.8535C5.3181 58.9476 5.2848 57.0171 5.71519 55.1604C4.17263 54.0376 3.16768 52.15 2.99662 50.1767C2.87169 48.7602 3.20922 47.4526 3.80394 46.2436C2.34508 45.6972 1.84352 43.782 2.53691 42.4022C1.61595 41.8742 1.01542 40.7548 1.00198 39.665C0.590529 39.0409 0.458877 38.2372 0.800073 37.3365C1.25001 36.1498 2.16639 35.157 3.21563 34.3784C2.75806 33.5806 2.41808 32.7105 2.20701 31.8113C1.33768 31.5565 0.636042 30.8522 0.493088 29.7946C0.31409 28.4687 1.18556 27.3447 2.35852 27.0479C2.48864 26.6441 2.64748 26.2491 2.84389 25.8697C2.26352 24.493 2.34905 22.7523 3.09742 21.2471C3.76026 19.9162 4.83853 19.1024 6.13673 18.5395C5.80683 17.4076 6.24364 16.2786 7.34328 15.4373C8.68577 14.4091 10.1581 13.6231 11.7052 13.0679C11.5678 11.2252 12.3369 9.33818 14.1547 8.69572C14.6407 8.52409 15.1465 8.46076 15.6606 8.4629C16.0339 7.65003 16.6567 6.98921 17.4695 6.40426C18.6995 5.5195 20.9981 6.06001 21.6803 7.4475L21.7135 7.51878C21.7484 7.59741 21.7859 7.6693 21.8217 7.74548C21.9591 7.07181 22.2805 6.43546 22.797 5.91384C24.0882 4.60964 25.4514 4.58516 26.7634 5.14288C27.0041 4.54508 27.2955 3.97665 27.6498 3.45687C28.9361 1.57108 31.0612 1.33092 32.6172 2.35213C33.2409 1.80298 33.937 1.37956 34.7071 1.13818ZM43.9037 114.539C46.4937 113.524 49.6369 113.824 52.1966 114.799L52.3842 114.872C54.6451 115.768 58.3182 117.759 58.7609 120.306C58.99 121.625 57.7379 122.766 56.4669 122.072C55.3611 121.469 54.7411 120.254 53.8613 119.373C52.9911 118.501 52.0164 117.801 50.9537 117.186C48.7361 115.904 46.4051 115.405 43.9037 115.035C43.6227 114.995 43.6991 114.619 43.9037 114.539Z" fill="black"/>
</svg>
