<svg width="115" height="143" viewBox="0 0 115 143" fill="none" xmlns="http://www.w3.org/2000/svg">
<path fill-rule="evenodd" clip-rule="evenodd" d="M51.785 0.884185C62.7672 -0.231098 73.5289 0.705986 84.3518 2.64498C85.1789 2.79522 85.6476 3.33935 85.8219 3.99346C90.9197 4.22696 96.0233 4.60211 101.114 4.88169C102.962 4.98308 104.009 6.81393 103.167 8.46719C102.999 8.79563 102.824 9.11516 102.646 9.43469L102.869 9.36089C104.401 8.86812 106.055 8.62517 107.547 9.40735C109.447 10.4028 110.191 12.5993 109.772 14.6209C109.664 15.1371 109.484 15.6317 109.279 16.1144C109.695 16.0868 110.115 16.096 110.531 16.1513C112.749 16.4462 114.397 18.1514 114.514 20.4219C114.685 23.8504 112.483 27.3287 109.888 29.7832C110.265 30.5609 110.409 31.4764 110.252 32.4043C109.94 34.2385 108.593 35.3369 107.031 36.0534C107.682 38.1276 107.99 40.2961 107.808 42.5122C107.748 43.2521 107.103 43.8632 106.422 44.0131C108.96 51.0225 110.245 58.548 111.169 65.881C111.827 71.0982 112.152 76.3459 112.191 81.6025C112.211 83.9757 112.172 86.3517 112.073 88.7253L112.032 89.6153C111.91 92.1811 111.904 94.8753 111.444 97.4134C113.013 100.089 113.644 103.411 113.91 106.409C114.241 110.121 113.717 113.949 112.55 117.479C108.145 130.819 94.85 139.238 81.4964 141.426C69.136 143.45 54.833 140.725 47.6096 129.464C47.4963 129.286 47.7383 129.139 47.8792 129.256C53.0471 133.471 59.0418 135.351 65.5549 136.267C76.8159 137.846 89.4734 135.167 98.5104 128.064C102.848 124.653 105.976 119.688 107.352 114.345C108.053 111.614 108.295 108.766 108.019 105.955C107.737 103.103 106.479 100.67 105.685 97.9756C105.419 97.0659 105.7 96.221 106.255 95.6191C106.411 93.4312 106.779 91.2252 106.919 89.0441C107.076 86.5644 107.171 84.085 107.205 81.6025C107.269 76.4531 107.054 71.2945 106.623 66.167C105.832 56.7774 103.734 47.6158 102.502 38.3061C102.046 38.7163 101.393 38.8847 100.708 38.5263L100.637 38.4874L100.263 38.2726C100.242 38.2726 100.217 38.2757 100.195 38.2785C97.6377 38.5276 94.9848 38.1712 92.5341 37.4059C89.9697 36.6074 87.5898 35.3784 85.4635 33.7408C85.0594 35.7959 84.8906 37.8729 84.8879 39.9683C84.8848 41.2771 83.5032 41.9564 82.4065 41.3973C77.5449 38.9206 72.9009 36.0666 68.4927 32.859C67.9777 35.5044 67.4634 38.1494 66.9453 40.7978C66.7465 41.8182 65.4504 42.2299 64.6202 41.7444C61.3182 39.8177 58.4662 37.2956 56.1442 34.2966C55.6806 35.1858 55.2156 36.0748 54.7475 36.9618L54.0427 38.2907C53.3473 39.5965 52.416 41.0409 50.8935 41.4584C49.2822 41.9008 47.9371 40.8534 47.3952 39.3907C47.2297 38.9363 47.0766 38.4689 46.9357 37.9989C45.563 41.1422 44.0132 44.2146 42.2609 47.1457C39.6326 51.542 36.477 55.4594 33.3312 59.4781C32.3754 60.6981 30.7396 59.5334 30.6078 58.3477C30.5313 57.6503 30.4669 56.9498 30.4115 56.252C28.5783 59.9623 26.6656 63.6378 24.5816 67.2067L24.8799 68.3794C25.7398 71.8445 26.4539 75.3341 27.2302 78.8176C27.4807 79.9415 26.8852 81.5484 25.5759 81.7398C24.0118 81.9684 22.5318 82.77 20.9297 82.2185C19.1827 81.6169 18.8374 80.1025 18.0127 78.6671C17.8482 78.381 17.6568 78.1184 17.4509 77.8689L17.3985 77.9371C17.2699 78.1064 16.9635 77.922 17.0401 77.7285L17.1299 77.5048C16.4213 76.7505 15.5734 76.1213 14.7937 75.4444C12.941 75.1314 10.857 75.4742 9.58049 76.2291C6.67334 77.9494 5.33801 81.4949 5.31044 84.7551C5.27675 88.571 6.45584 92.8601 8.44704 96.123C9.32347 97.5578 10.5243 98.854 12.1108 99.4903C13.6857 100.123 15.392 99.9266 16.9942 100.522C18.0541 100.919 18.7066 102.099 18.0664 103.168C18.0235 103.242 17.9745 103.309 17.9282 103.38L18.4047 104.014C18.7325 104.454 19.0742 104.924 19.3928 105.414C20.2077 106.354 21.0654 107.26 21.8956 108.185C23.43 109.89 24.9191 111.642 26.4291 113.371C27.8539 115.003 29.361 116.536 30.9142 118.044C32.3815 119.473 34.2134 120.674 35.5613 122.198C36.8721 123.686 37.2278 126.281 35.0709 127.142C32.6847 128.096 30.5723 125.86 28.966 124.368L28.8985 124.306C25.9539 121.588 23.2949 118.483 21.1833 115.063C19.0917 116.491 16.0663 116.628 13.9835 115.2C12.8874 114.449 12.0465 113.187 11.6379 111.813C11.2525 111.9 10.8674 111.95 10.4918 111.945C10.2985 112.057 10.1046 112.166 9.90858 112.268C8.35514 113.079 6.44696 112.717 5.73625 110.993C5.08908 109.428 5.75597 107.651 6.3389 106.143L6.45921 105.831C6.79006 104.971 7.1546 104.034 7.60798 103.153C6.34587 102.2 5.26725 101.017 4.35467 99.6716C1.28823 95.1398 -0.243465 88.5123 0.433543 83.1052C0.840972 79.8423 2.36929 76.4626 4.87207 74.2625L4.78048 74.0228C4.07896 72.2381 3.44148 70.4465 3.02823 68.5604C2.54421 66.3544 2.30802 64.0685 2.09389 61.8226C1.64051 57.0788 1.76305 52.2275 2.36654 47.5021C3.49999 38.6075 6.37344 29.8757 11.474 22.4743C10.0277 20.7381 8.88234 18.6949 9.4794 16.3448C9.75234 15.2661 10.3739 14.2433 11.3116 13.6255C11.829 13.2847 12.4451 13.2325 12.9628 12.9498L13.1184 12.8639C13.3458 12.7308 13.1719 12.7449 13.0363 12.1264C12.5002 9.65591 12.9444 7.26895 15.6555 6.44862C18.2073 5.67745 20.6212 7.31504 22.1315 9.26602C26.0832 6.45446 31.291 4.98308 35.8707 3.73261C41.0785 2.31593 46.4207 1.43138 51.785 0.884185ZM9.09997 83.7471C9.08128 81.7347 10.9836 80.4934 12.8557 80.8225C14.1127 81.0419 15.1613 81.7943 16.146 82.5719L16.626 82.9529C17.8251 83.897 19.2017 84.9148 19.9165 86.2514C20.9641 88.2239 18.7496 90.8782 16.6818 89.4956C15.2634 88.5422 14.3542 87.0146 13.4238 85.5956L13.3274 85.4492C12.9047 84.8132 12.534 84.1373 11.9547 83.6273L11.8296 83.5174C11.6392 83.3546 11.4348 83.2061 11.1889 83.1357C10.7146 82.9989 9.83599 83.1904 9.62683 83.7568L9.60818 83.8147C9.5316 84.1007 9.10303 84.039 9.09997 83.7471Z" fill="black"/>
</svg>
