<svg width="365" height="209" viewBox="0 0 365 209" fill="none" xmlns="http://www.w3.org/2000/svg">
<path fill-rule="evenodd" clip-rule="evenodd" d="M31.389 84.9696C30.4328 84.851 29.4953 84.5105 28.564 84.2418C27.1421 83.8262 25.7484 83.3419 24.3765 82.7888C21.5453 81.6549 18.7984 80.3141 16.2234 78.6737C12.064 76.0209 8.38901 72.6214 5.61714 68.5282L5.42684 68.2427C3.84439 65.8326 0.925389 60.4811 4.19839 58.6513C2.08892 56.889 0.0951703 53.7238 0.20767 51.2803C0.367045 47.8245 4.60455 47.8717 6.79517 49.3368C8.22955 50.2961 9.30455 51.6397 10.3827 52.9617C11.5764 54.4299 12.8514 55.8297 14.1764 57.1764C14.528 57.5326 14.8831 57.8818 15.2443 58.2253L15.6076 58.5668C15.5514 58.4326 15.5014 58.2952 15.4577 58.1542C14.7264 55.8767 15.5983 52.9115 17.8764 51.8679C19.2706 51.2289 20.7184 51.6189 22.0694 52.1614L22.2764 52.246C24.0952 52.9987 25.9358 53.6645 27.8295 54.1988C35.5483 56.3767 43.6045 56.7391 51.5139 57.8265C54.5608 58.2483 57.6639 58.7792 60.6952 59.5603C61.8514 54.6517 64.6857 49.9463 67.7607 46.075C82.4857 27.5552 106.77 21.4344 128.986 17.4725C131.011 17.1131 132.689 19.7939 133.867 19.1596C136.101 17.9598 138.067 16.26 139.792 14.4134C143.47 10.4732 146.08 5.83948 149.145 1.44942C150.661 -0.719043 154.148 1.22133 152.742 3.54915L152.053 4.68679C149.217 9.34672 146.076 14.1491 142.008 17.7629C139.845 19.6814 137.445 21.1968 134.701 22.1433C132.623 22.8591 129.708 23.4622 127.433 22.7682L127.16 22.3706C127.25 22.5035 127.341 22.6362 127.433 22.7684C133.37 31.3704 140.82 38.6507 148.67 45.5217C156.594 52.4532 165.142 58.6603 173.741 64.7293L174.458 65.2347C188.467 55.0177 200.301 41.6911 208.604 26.4651C206.864 26.2555 205.142 25.1403 203.655 24.3089C201.864 23.3031 200.18 22.1029 198.867 20.5031C196.008 17.0192 196.38 12.5292 195.864 8.30159C195.833 8.03913 196.18 7.97351 196.339 8.10474C197.889 9.39207 198.433 11.5012 199.08 13.3228C199.792 15.3257 200.598 16.9758 202.233 18.3847C203.755 19.6973 205.611 20.6625 207.414 21.5217C208.344 21.9626 212.96 23.0957 213.486 24.0341C221.461 22.1624 229.23 25.3963 235.139 30.8519C240.848 36.1231 245.039 42.9753 248.739 49.74C252.686 56.9578 255.92 64.4815 258.708 72.2149C261.533 80.0642 263.698 88.085 264.889 96.3464C265.894 103.312 266.51 110.386 266.909 117.429L266.958 118.309C272.858 109.051 278.905 99.8897 285.076 90.8096C283.673 87.0632 285.226 83.2387 287.855 80.3454C290.767 77.1426 294.795 75.6553 298.648 73.9243L299.155 73.6952C301.012 72.8482 302.863 71.9155 304.467 70.6466C306.011 69.4218 307.145 67.7345 308.77 66.6065C311.133 64.963 315.42 65.3129 315.53 68.9031C315.586 70.875 314.739 73.0369 313.964 74.8086C313.086 76.8117 311.901 78.6268 310.495 80.2954C310.43 80.3731 310.359 80.4344 310.287 80.4831L310.233 80.5172C312.176 80.839 314.136 81.0984 316.133 81.189C320.161 81.3733 324.233 81.0765 328.176 80.2266C332.214 79.358 336.126 77.946 339.758 75.9772C342.861 74.2961 345.736 72.1214 349.261 71.609C349.586 71.5591 349.914 71.5278 350.251 71.5091C350.814 71.4778 351.376 72.1402 351.155 72.6961C351.033 73.0026 350.905 73.3057 350.764 73.6119C349.545 76.2958 347.676 78.8995 345.344 80.8757L345.164 81.0265C345.986 80.7422 346.795 80.4235 347.592 80.0642C352.276 77.9551 356.526 74.768 361.548 73.4869C361.786 73.4244 362.026 73.3681 362.267 73.315C363.82 72.9807 364.639 74.668 363.727 75.8241C363.58 76.0115 363.433 76.1959 363.28 76.3802C361.039 79.161 358.567 81.7419 355.842 84.0604C354.908 84.854 353.945 85.6227 352.964 86.3573C352.55 86.6685 352.135 86.973 351.715 87.2726L351.508 87.4193C351.998 87.0728 352.483 86.7197 352.964 86.3573C356.039 85.4258 359.07 84.3229 362.036 83.1015C363.214 82.6168 364.13 83.8104 364.255 84.7915C364.673 88.0789 361.023 90.4567 358.648 92.0375C356.267 93.6251 353.645 94.8312 350.961 95.7995C345.799 97.6645 340.379 98.5114 334.966 99.2704L332.337 99.6365C321.932 101.091 311.064 102.831 303.598 110.926C299.414 115.463 296.583 121.099 293.992 126.645C291.405 132.186 289.133 137.872 286.976 143.59C284.742 149.508 282.795 155.535 280.726 161.513C278.826 167.001 276.557 172.42 274.309 177.783L273.955 178.629C269.183 190.028 263.483 200.764 255.539 210.281C254.23 211.853 252.114 209.622 253.323 208.066C261.633 197.355 267.414 184.716 272.186 172.108C274.358 166.372 276.176 160.497 278.264 154.729L279.506 151.303C281.165 146.735 282.838 142.173 284.583 137.641C286.792 131.907 289.22 126.242 291.998 120.762L292.293 120.185C295.013 114.898 298.244 109.687 302.692 105.686C310.697 98.4809 321.35 96.7523 331.649 95.3833L334.89 94.9563C339.244 94.3779 343.611 93.7391 347.845 92.5749C350.289 91.9066 352.676 91.0501 354.92 89.869C355.814 89.4003 356.686 88.8851 357.53 88.3226C355.123 89.0288 352.683 89.6066 350.198 90.0596C348.983 90.2815 347.78 90.4474 346.579 90.563C343.489 90.8688 340.423 90.8563 337.258 90.691C336.989 90.6751 336.902 90.2536 337.189 90.2004C339.394 89.8084 341.601 89.3183 343.799 88.7864L344.458 88.6254C344.47 88.2602 344.614 87.8724 344.914 87.504C346.008 86.1729 348.086 85.4915 349.526 84.551C351.036 83.5667 352.498 82.5047 353.892 81.367C355.167 80.3268 356.392 79.2266 357.57 78.0771L357.923 77.7301C357.806 77.8462 357.688 77.9618 357.57 78.0769C354.389 79.5458 351.373 81.4296 348.051 82.5923C345.411 83.52 342.642 84.1449 339.848 84.3667L339.675 84.3804L339.501 84.3917C336.586 84.6011 333.651 84.5167 330.78 85.1479C330.458 85.2198 330.358 84.7886 330.645 84.6667C333.155 83.6231 335.764 83.22 338.401 82.7326C338.458 82.5263 338.601 82.3419 338.851 82.2232L339.526 81.9011C341.536 80.9361 343.409 79.9619 345.08 78.3956C346.555 77.0114 347.783 75.3932 348.705 73.5993C345.014 74.4086 341.773 77.2051 338.417 78.7768C334.761 80.4922 330.892 81.7233 326.917 82.4235L326.464 82.5011C319.036 83.74 310.103 83.582 303.448 79.7204C303.236 79.5955 303.389 79.3114 303.608 79.3455C305.495 79.6548 307.364 80.0204 309.233 80.3454C308.867 80.011 308.704 79.4111 309.126 78.9299C310.805 77.0068 312.132 74.8086 312.981 72.4033L313.143 71.9329C313.534 70.8172 314.194 69.0846 313.52 68.0782C312.876 67.1189 311.361 67.2502 310.454 67.6564C308.57 68.5063 307.317 70.6282 305.73 71.909C303.998 73.3088 302.03 74.3461 300.014 75.2741L299.588 75.4675C296.102 77.0355 292.377 78.3555 289.636 81.1234C288.161 82.6107 286.892 84.4698 286.467 86.5539C286.273 87.51 286.273 88.4943 286.53 89.441C286.733 90.1816 287.158 90.6381 286.914 91.3908C286.595 92.3625 285.467 93.5249 284.886 94.3904C284.211 95.3906 283.539 96.3933 282.867 97.3962C281.526 99.4022 280.192 101.414 278.858 103.424C276.189 107.448 273.548 111.491 270.93 115.547C270.077 116.868 269.228 118.19 268.382 119.513L267.114 121.499L266.444 122.547L265.301 124.343C265.342 124.508 265.339 124.683 265.286 124.836C265.091 125.391 264.726 125.77 264.273 126.045L264.192 126.092C257.523 136.632 250.961 147.24 244.333 157.804C243.98 161.028 243.648 164.256 243.361 167.484C242.708 174.789 242.261 182.114 242.117 189.447C242.048 192.997 242.333 196.568 242.486 200.114C242.561 201.807 242.663 203.497 242.797 205.187L242.896 206.385C243.028 208.031 243.103 209.665 242.511 211.235C241.986 212.612 240.386 212.922 239.439 211.872C227.086 211.375 214.723 210.997 202.361 210.763C180.233 210.338 158.095 210.403 135.964 210.831C124.848 211.047 113.73 211.35 102.617 211.725C97.142 211.906 91.6639 212.163 86.1858 212.238C83.2344 212.278 78.5892 211.203 78.351 207.883L78.3452 207.782C77.9764 207.882 77.5952 207.963 77.2045 208.022C77.0306 208.049 76.8636 208.042 76.7093 208.005L76.6327 207.985C72.2331 209.326 66.6678 207.413 62.4872 206.298L62.1421 206.207C58.1515 205.166 54.9452 203.679 52.3296 200.373C47.7515 194.584 46.189 186.809 45.3765 179.645C44.614 172.902 44.5702 166.034 45.4984 159.304C44.9515 153.82 45.4858 148.162 46.1077 142.709C46.4139 140.012 46.7733 137.319 47.2046 134.638C47.4452 133.141 47.7608 131.66 48.0827 130.182C48.2112 129.592 48.3182 128.956 48.4811 128.342L48.5545 128.08C48.0545 128.145 47.5077 128.036 46.9795 127.746C45.7233 127.055 45.3577 125.658 45.3358 124.321C45.267 120.29 45.7483 116.144 46.1733 112.138C46.6014 108.139 47.1889 104.123 47.9577 100.174L48.1566 99.1556C48.7391 96.2013 49.4056 93.1513 50.5795 90.3752C46.1703 89.6256 41.7734 88.8288 37.4953 87.4724C35.4078 86.8069 33.3515 85.9792 31.389 84.9696ZM261.533 126.917C261.464 126.933 261.398 126.952 261.333 126.971C259.57 127.464 257.789 127.883 256.014 128.333C252.945 129.105 249.945 129.967 247.092 131.308C246.494 138.85 245.608 146.369 244.766 153.891L244.598 155.395C245.892 152.995 247.217 150.614 248.601 148.262C252.817 141.091 257.13 133.976 261.533 126.917ZM49.6296 127.664C49.639 128.561 49.4515 129.492 49.3515 130.354C49.189 131.754 49.0577 133.161 48.8921 134.56C48.5546 137.372 48.2671 140.187 48.0577 143.012C47.9233 144.815 47.8358 146.624 47.7577 148.434C49.5296 141.812 51.8765 135.335 54.1077 128.848C53.7348 128.809 53.3535 128.718 52.9602 128.613L52.2981 128.435C51.9077 128.335 50.6413 128.023 49.6296 127.664ZM267.114 121.499L267.127 121.796C267.173 122.849 266.542 123.443 265.777 123.596C266.22 122.896 266.667 122.196 267.114 121.499ZM64.3639 71.5936C66.2295 71.7589 68.0577 72.156 69.8014 72.8434L69.9697 72.9091C71.2594 73.4068 73.1452 74.0323 73.567 75.4087C73.6858 75.7993 73.3671 76.1208 73.0014 76.1524C71.6014 76.2648 69.9514 74.7647 68.6545 74.2585C67.2108 73.6961 65.6983 73.2774 64.167 73.0556C60.7264 72.5525 57.1389 72.934 53.9014 74.187C53.7108 74.262 53.592 73.9586 53.7639 73.868C57.0264 72.0932 60.6545 71.2655 64.3639 71.5936ZM24.8296 80.5297C24.6139 80.339 24.3983 80.1391 24.1858 79.9394C22.5103 78.3546 21.0267 76.505 19.9281 74.4726L19.639 73.9226C18.7443 72.1906 17.6456 69.7229 19.7483 68.475C21.0045 67.7285 22.517 67.9157 23.917 68.3687C24.0076 68.3968 24.0983 68.4284 24.1889 68.4593C24.8139 68.6784 25.417 68.9405 25.9545 69.1905C28.2889 70.2622 30.3483 71.8214 32.5045 73.1965C34.8409 74.6869 37.1479 75.64 39.8443 76.1978L40.0983 76.2489C42.6295 76.7492 45.3733 77.0707 47.1389 79.1517C47.5826 79.6769 47.1764 80.6609 46.4108 80.4015C41.5295 78.7552 36.3639 78.3924 31.8826 75.6896C30.0264 74.571 28.2701 73.2871 26.3733 72.2276C25.367 71.6647 24.3281 71.1727 23.2209 70.8352L22.6161 70.6569C22.2618 70.5535 21.8389 70.4513 21.5545 70.5531C21.0132 70.7406 21.186 71.0302 21.3534 71.5358L21.3701 71.5871C22.6858 75.6556 26.4358 79.0611 29.9108 81.3139C30.7076 81.8326 31.5233 82.3078 32.3545 82.7484C37.9812 85.7471 44.2771 87.1427 50.4606 88.7995C50.4606 88.7995 54.0359 89.7974 55.2202 90.1723C56.539 90.0626 58.0421 90.5285 59.0359 91.0847C60.0015 91.6249 60.7796 92.3502 61.3671 93.2032C61.3671 93.2032 61.9327 93.675 62.0359 94.4061C62.3327 95.0842 62.5327 95.815 62.6327 96.5777C62.689 97.0245 62.5765 97.3679 62.364 97.6117C63.0032 107.421 60.3533 117.174 57.3659 126.496L57.0698 127.416L56.8796 127.998C53.6577 137.881 49.9609 147.693 48.3109 157.998C47.2077 164.881 47.2421 172.005 48.0515 178.92L48.1085 179.397C48.906 185.935 50.4404 193.269 54.5984 198.53C56.7192 201.215 59.2319 202.409 62.4443 203.273L62.6202 203.32C65.5265 204.085 68.5265 205.17 71.5234 205.498C74.3046 205.801 76.6359 204.767 79.139 203.798L79.142 203.795C84.414 199.13 86.8077 192.337 88.5764 185.481C93.1608 167.74 92.5921 149.324 89.9921 131.323C88.6358 121.918 86.7921 112.594 84.9546 103.274C84.0358 98.6149 83.0452 93.9655 82.2233 89.2911L81.7352 86.5401C81.4659 85.0117 81.2054 83.4821 80.9827 81.9452C80.6827 79.8799 80.5921 77.8489 80.489 75.771C77.964 71.5872 74.2983 68.1407 70.0515 65.6692C67.0108 63.8976 63.7921 62.6696 60.4702 61.7791C50.9733 59.22 40.6202 59.4013 31.0639 57.4328C27.8536 56.7723 24.8062 55.7916 21.7605 54.6165L21.3452 54.455C19.9483 53.9114 18.5233 53.6083 17.8295 55.2549C17.3358 56.4267 17.6295 57.6452 18.3702 58.6295C20.1858 61.0417 23.8358 62.1603 26.5827 63.0289C28.2358 63.5538 29.9233 63.9694 31.6295 64.2788C33.3358 64.5881 35.0483 64.6662 36.6858 65.2692C37.317 65.5005 37.442 66.5035 36.6858 66.6813C34.6108 67.1659 32.5233 66.7503 30.4608 66.3472C28.1952 65.9001 25.9639 65.2661 23.7952 64.4631C23.3952 64.3156 22.9812 64.1601 22.5596 63.9949L22.242 63.8693C22.5702 64.1071 22.8983 64.3414 23.2295 64.5758C23.317 64.638 23.2639 64.8036 23.1483 64.7629C18.0489 62.8608 13.4091 59.4288 9.81464 55.3681L9.6358 55.1645C8.37017 53.7144 5.4858 49.3275 3.05455 50.5492C0.771547 51.695 4.66327 56.1121 6.14224 57.918L6.31398 58.1297C7.99523 58.1734 9.62336 59.2199 10.9859 60.0635C13.3515 61.5292 15.8234 62.7916 18.3421 63.9724C23.3484 66.3252 28.664 67.9846 33.6171 70.4559C33.6827 70.4906 33.6327 70.5746 33.5702 70.5656C30.4171 70.0622 27.2984 69.2592 24.2515 68.2627L24.1155 68.2201L23.9796 68.1749C22.0765 67.55 20.1984 66.8442 18.3515 66.0908C16.2984 65.2538 14.2921 64.3133 12.3452 63.2478C10.5827 62.2854 8.62648 60.5512 6.58273 60.295C6.36398 60.2669 6.17023 60.2635 6.00148 60.2794C3.65464 60.4761 5.59527 64.3631 6.25152 65.5254C7.32339 67.4346 8.61714 69.1968 10.1015 70.806C13.1109 74.0743 16.7578 76.6646 20.7046 78.68C22.0515 79.3674 23.4296 79.9735 24.8296 80.5297Z" fill="black"/>
</svg>
