<svg width="118" height="145" viewBox="0 0 118 145" fill="none" xmlns="http://www.w3.org/2000/svg">
<path fill-rule="evenodd" clip-rule="evenodd" d="M101.403 30.651C101.39 30.4108 101.74 30.3826 101.806 30.5951C105.634 43.2403 107.994 53.095 110.478 66.0592L111.212 69.8729C113.172 80.0444 115.153 90.2307 116.825 100.452L116.923 101.062C117.761 106.353 118.244 111.695 117.194 116.996C116.213 121.952 113.531 126.495 110.05 130.113C103.322 137.107 93.9717 141.474 84.5657 143.427C79.8095 144.415 74.9032 144.796 70.0564 144.452C67.6404 144.283 65.2282 143.943 62.8626 143.44L62.6015 143.384C60.2169 142.869 58.1006 142.255 56.8342 140.012C56.5157 139.447 56.6439 138.478 57.3126 138.187C58.5751 137.643 59.5032 137.416 60.8811 137.572C62.1967 137.721 63.4814 138.119 64.7814 138.365C67.2657 138.837 69.7907 139.074 72.3189 139.131C77.2845 139.24 82.2626 138.619 87.0095 137.137C95.1654 134.591 103.453 129.72 108.219 122.433C113.825 113.861 111.593 103.458 110.107 93.9922L110.062 93.7056C108.558 84.0299 107.071 74.3542 105.628 64.6723L105.012 60.5225C103.394 49.5583 101.866 41.7312 101.403 30.651ZM18.5938 3.8142C22.6646 1.13147 27.723 0.472245 32.5043 0.509265L33.103 0.516813C39.2253 0.610116 70.043 1.3434 80.3611 1.56904L82.8157 1.62074C86.0645 1.68203 92.6168 1.74602 95.9927 1.80771L96.1875 1.81134C97.8438 1.84258 99.5 1.85508 101.156 1.9082L101.399 1.91694C102.64 1.9699 103.672 2.15552 104.644 3.02993C105.138 3.4731 105.331 4.149 105.285 4.79279L105.278 4.87656L107.738 5.09216C109.407 5.23976 110.291 6.73734 109.627 8.25278L109.594 8.32611C108.416 10.8383 107.516 18.1498 106.884 20.8526C106.553 22.2743 106.287 23.7179 106.131 25.1708C106.006 26.3147 105.994 27.4611 105.356 28.4672C103.997 30.6138 100.172 30.5951 100.103 27.5549C100.1 27.458 100.103 27.3643 100.113 27.2736C90.4875 26.8518 77.3469 26.8924 67.7344 27.4674C58.7563 28.0048 49.8188 29.2234 41.0219 31.0888C38.7938 31.5606 36.5719 32.0761 34.3657 32.6354C32.5563 33.0916 30.3344 33.3635 28.7157 34.3415C26.9032 35.4413 26.9375 37.4129 27.1344 39.2908C27.3457 41.2812 27.6981 40.2557 28.1974 42.0695L28.2282 42.1842C28.7438 44.1527 29.3813 46.0993 30.225 47.9491C30.7063 49.0052 31.4816 50.0207 31.1875 51.2361C31.0219 51.9204 30.481 52.6516 29.9844 53.1296C27.7216 55.3012 23.8969 53.917 22.3594 56.8917C20.7504 60.0021 20.7104 64.2156 20.5738 67.6574L20.5657 67.859C20.466 70.2305 20.4938 72.6084 20.65 74.9737C20.7907 77.1293 21.3654 79.2637 20.6282 81.3353C20.0904 82.8414 18.3344 82.982 17.4157 81.7572C17.3102 81.6166 17.2135 81.4724 17.123 81.3274L17.0344 81.1822L17.0285 81.1854C17.1157 81.3228 17.1969 81.4638 17.275 81.6072C17.3594 81.7665 17.1501 81.9415 17.0219 81.804C14.8594 79.4512 11.7001 79.9199 9.25318 81.5666C6.77505 83.2413 5.79693 86.4222 5.6688 89.2752C5.52505 92.4398 5.8063 96.1493 7.12505 99.0737C7.6813 100.311 8.47474 101.448 9.79068 101.92C10.3879 102.133 10.9563 102.105 11.5782 102.155C12.2247 102.204 13.0032 102.529 13.631 102.486C14.4472 102.428 15.18 103.359 14.9482 104.14L14.9313 104.192C14.9191 104.229 14.9063 104.267 14.8941 104.301C14.925 104.329 14.9563 104.364 14.9782 104.414C17.3532 109.266 20.6094 113.584 24.2094 117.59C26.0129 119.593 28.0125 121.433 30.1032 123.136C31.1344 123.977 32.2219 124.817 33.3688 125.495C33.75 125.717 34.0997 125.867 34.5285 125.989C34.7282 126.045 34.9563 126.073 35.15 126.139L35.3512 126.208C35.365 126.212 35.3782 126.216 35.3907 126.22C35.9657 126.286 36.45 126.667 36.6407 127.264C37.1375 128.82 36.2344 130.195 34.6907 130.623C33.0182 131.09 31.4419 130.269 30.1162 129.326L30.0282 129.263C27.325 127.317 24.8344 125.133 22.6782 122.583C18.4125 117.549 15.7404 111.722 14.5035 105.276C14.1969 105.935 13.7844 106.51 13.0688 106.91C11.9563 107.535 10.6282 107.535 9.40943 107.326C6.9563 106.91 4.86568 105.413 3.4688 103.389C2.01849 101.289 1.47818 98.7393 1.15005 96.2553C0.825052 93.7678 0.665677 91.2716 0.990677 88.7781C1.45661 85.1973 2.95943 81.6572 5.8813 79.6949C3.6938 74.9299 3.30943 69.5869 3.46568 64.3688C3.6563 57.9446 4.76568 51.4486 5.6188 45.0838L8.04411 26.9893L8.14334 26.2598C8.7286 22.0031 9.4411 17.7238 11.0344 13.7129C12.6063 9.7603 14.9938 6.18577 18.5938 3.8142ZM8.38761 89.4155C12.3939 87.472 16.722 89.2624 18.8782 93.0337C20.7531 96.3127 15.1788 98.48 14.2487 95.1001L14.222 94.996C13.6095 92.437 11.1154 90.2247 8.51261 89.881C8.29699 89.8501 8.1373 89.5376 8.38761 89.4155Z" fill="black"/>
</svg>
