<svg width="64" height="53" viewBox="0 0 64 53" fill="none" xmlns="http://www.w3.org/2000/svg">
<path fill-rule="evenodd" clip-rule="evenodd" d="M42.4599 51.6019C40.3809 52.4216 37.9245 52.6153 35.7785 51.9168C33.7265 51.2488 31.8632 49.7622 30.7358 47.8925C29.7316 46.2273 29.3122 44.2511 29.9057 42.281C29.9341 42.1867 30.0262 42.1264 30.1151 42.1029C30.6006 42.5462 30.9006 42.9865 31.2003 43.4247C31.7056 44.1634 32.212 44.8945 32.9071 45.5261C33.9186 46.4449 35.2812 47.1912 36.6337 47.4373C37.9579 47.6788 39.3131 47.4653 40.4988 46.8297C41.2198 46.4434 41.8029 45.9268 42.3802 45.4079C43.0088 44.8429 43.6275 44.2693 44.4933 43.9503C45.1871 43.6945 45.9159 43.9103 46.4758 44.3381C47.0775 44.7978 47.5103 45.5175 47.4863 46.2699C47.4491 47.4356 46.9403 48.4079 46.2021 49.2102C45.2041 50.2948 43.793 51.0762 42.4599 51.6019ZM39.9916 22.5523C42.3049 23.9625 45.8296 27.2509 43.341 30.7471C40.4118 33.8298 36.1943 30.2953 34.116 28.6968C32.1889 27.4579 30.0237 30.6442 31.8117 32.0907C46.8295 43.2421 52.9241 22.921 41.1616 20.8941C39.8665 20.6708 39.3855 22.116 39.9916 22.5523ZM15.6603 3.0121C18.8131 2.86094 21.5916 4.281 24.5962 4.92621C27.3728 5.52287 30.1084 5.16463 32.8088 4.40574C37.1913 3.17401 39.0029 9.90259 34.6802 11.2139C31.5323 12.1688 28.2177 12.2352 24.9874 11.743C22.1179 11.3054 19.7125 9.90443 16.9766 9.08871C14.6287 8.38901 11.8666 8.6798 9.3871 9.00922L8.42459 9.13909C6.99399 9.33235 5.55574 9.52622 4.13923 9.80673C2.9102 10.0504 1.68332 10.4962 0.428865 10.5478C0.286417 10.5539 0.16572 10.3684 0.255477 10.2445C1.71269 8.23809 4.52123 6.6549 6.75528 5.59896L6.90669 5.52779C9.66434 4.2383 12.5899 3.15896 15.6603 3.0121ZM14.5052 17.8075L14.5048 17.7382C14.5091 15.779 15.6468 11.3057 18.4591 11.3057C20.2159 11.3057 21.2825 14.3501 21.4672 17.4884L21.4736 17.6164C21.5551 19.5675 21.0213 23.8324 18.4591 23.8324C15.8697 23.8324 14.5318 19.793 14.5052 17.8075ZM55.9084 17.8075L55.9088 17.7382C55.9045 15.779 54.7668 11.3057 51.9546 11.3057C50.2416 11.3057 49.1848 14.1998 48.9619 17.2533L48.9464 17.4884C48.8355 19.3737 49.3348 23.8324 51.9546 23.8324C54.5439 23.8324 55.8818 19.793 55.9084 17.8075ZM55.8653 0.625845L56.0664 0.630278C59.3528 0.744571 62.7333 2.69709 63.6106 5.97688C63.656 6.14709 63.4467 6.26169 63.3227 6.14494C60.6204 3.60753 56.9862 6.0321 54.2803 7.30296L53.2864 7.76346C49.7981 9.39115 45.8306 11.3048 41.9574 10.0918C40.1179 9.51568 38.9495 7.62 39.4743 5.70528C39.9411 4.00163 41.9914 2.56989 43.7673 3.18481L43.8478 3.21417C45.2907 3.76772 47.0648 3.20687 48.5549 2.65393L49.779 2.1929C51.7474 1.44379 53.7249 0.60569 55.8653 0.625845Z" fill="black"/>
</svg>
