<svg width="59" height="61" viewBox="0 0 59 61" fill="none" xmlns="http://www.w3.org/2000/svg">
<path fill-rule="evenodd" clip-rule="evenodd" d="M29.7458 59.8445C27.6451 58.9876 25.7707 57.5583 24.4004 55.7324C23.924 55.0977 23.8004 54.4274 23.9004 53.8144C24.0127 53.125 24.4206 52.5003 24.9769 52.0812C25.5348 51.6608 26.2328 51.4535 26.9076 51.5592C27.4939 51.651 28.0776 51.972 28.5395 52.6377L28.6361 52.7709C29.4507 53.8729 30.5124 54.7771 31.722 55.3599C32.8879 55.9216 34.1918 56.1838 35.5412 56.0314C38.1112 55.7411 39.8825 54.3514 41.7652 52.4643C41.9986 52.226 42.2321 51.9803 42.4668 51.7306C42.615 51.5043 42.8206 51.3588 43.0489 51.2825C43.3024 51.1977 43.5892 51.2025 43.8519 51.2942C44.1052 51.3826 44.3317 51.5501 44.4836 51.7731C44.6279 51.985 44.7098 52.2467 44.6832 52.5478C44.5109 54.5036 43.4883 56.249 42.0357 57.6195C40.4224 59.1416 38.2839 60.1946 36.2706 60.5639C34.0525 60.9708 31.7924 60.6793 29.7458 59.8445ZM37.317 29.6736C39.6768 31.1078 43.2724 34.4521 40.7338 38.0077C37.7456 41.1427 33.4433 37.5482 31.3232 35.9225C29.3573 34.6626 27.1486 37.903 28.9725 39.3741C44.2924 50.7149 50.5095 30.0487 38.5105 27.9874C37.1894 27.7602 36.6987 29.2299 37.317 29.6736ZM9.86352 16.4814C10.1242 13.2454 15.0532 12.5106 15.5435 15.7127C15.9826 18.5811 15.4657 21.2161 14.1735 23.7985C12.9388 26.2657 9.83554 25.1147 9.60085 22.8681C9.28627 19.8566 9.70133 18.4943 9.86352 16.4814ZM47.3834 15.0488C48.0706 14.1489 49.0628 13.5346 50.2515 13.8817C53.9656 14.9669 52.8709 20.239 51.5666 22.8053C50.8578 24.1988 48.5669 24.5522 47.5316 23.3252C45.844 21.3242 45.0359 17.3282 47.1812 15.3572C47.2394 15.2553 47.3041 15.1525 47.3834 15.0488ZM14.1212 2.32199L14.7079 2.21932C16.5228 1.90547 18.7795 1.6039 20.0634 3.06283C20.7443 3.83648 20.9787 5.27442 20.0634 6.01495C18.4534 7.3179 16.6734 6.81297 14.744 6.92327C13.154 7.01451 11.6259 7.2776 10.0943 7.71535C6.73433 8.67554 3.99652 10.4284 1.12683 12.3532C0.750265 12.6056 0.36589 12.1242 0.545578 11.772C2.20214 8.52774 5.41245 5.86278 8.62808 4.23831C10.3443 3.37123 12.2225 2.65195 14.1212 2.32199ZM43.9978 0.868711L44.4468 0.960599C49.3334 1.98191 55.6823 4.02205 57.9964 8.82125C58.0845 9.49988 57.9914 9.64532 57.9156 9.74034L57.8904 9.77196C57.828 9.85311 57.7782 9.96497 57.484 10.0573C57.4023 10.0379 57.3199 10.0173 57.2366 9.99545C56.1758 9.71751 55.3366 9.33461 54.5241 8.9373L53.6432 8.50336C52.6212 8.00229 51.5901 7.51946 50.4974 7.16302C48.1655 6.40251 45.7669 5.86678 43.3312 5.58071C42.8032 5.51876 42.2949 5.34061 41.8938 5.03529C41.5131 4.74547 41.2223 4.34422 41.0897 3.81087C40.9179 3.12062 40.9672 2.59805 41.3376 1.97535C41.6162 1.50772 42.0147 1.18358 42.4723 0.997455C42.9387 0.807706 43.4698 0.762973 43.9978 0.868711Z" fill="black"/>
</svg>
