<svg width="226" height="210" viewBox="0 0 226 210" fill="none" xmlns="http://www.w3.org/2000/svg">
<path fill-rule="evenodd" clip-rule="evenodd" d="M105.864 3.43593L106.067 2.87438C107.298 -0.533746 108.807 -0.787673 108.08 2.51644L107.97 3.01422C107.34 5.84119 106.587 8.76258 105.044 11.2356C102.383 15.5007 95.4126 17.0821 90.7639 18.5992C90.7789 18.7066 90.7789 18.814 90.7666 18.9149C93.6074 19.3493 96.5245 20.7196 98.904 22.2557C101.082 23.6658 103.049 25.2475 104.515 27.3493L111.688 24.2287C114.055 23.2008 116.44 21.977 119.012 21.564C122.638 20.9827 128.228 22.9285 127.801 27.5087C127.745 28.1263 127.357 28.5853 126.881 28.8116C127.244 28.7814 127.611 28.7716 127.974 28.7841C130.4 28.8667 133.827 31.0174 132.56 33.8535C132.236 34.5844 131.301 34.1043 131.228 33.4925C130.748 29.4697 126.597 30.4151 123.717 31.0725C121.111 31.666 118.536 32.3942 116.016 33.2841C113.322 34.2359 110.716 35.4474 108.312 37.0046C105.832 38.6135 103.514 40.5657 103.666 43.778C103.672 43.8453 103.566 43.879 103.535 43.8144C102.255 41.0797 104.747 38.1947 106.773 36.6191C109.705 34.3402 113.139 32.7001 116.608 31.4213C118.392 30.765 120.232 30.2486 122.078 29.7912L122.504 29.6866C123.588 29.4235 124.712 29.1206 125.842 28.9371C125.425 28.8347 125.06 28.531 124.898 27.9821L124.877 27.9058C123.246 21.4355 114.504 26.6398 110.964 28.2028C108.431 29.3195 105.868 30.3903 103.364 31.5742L103.041 31.7283C101.1 32.6615 99.0759 33.7641 97.7708 35.5208C94.423 40.0181 97.4287 46.0909 98.4855 50.839C98.7879 52.2005 99.0781 53.6445 99.0965 55.0429C99.1112 56.1875 98.7608 57.2667 98.4771 58.3679L98.3117 59.0167C98.4581 59.0201 98.6077 59.173 98.5589 59.3288C97.3709 63.2142 95.3607 66.8979 93.4027 70.4407C91.405 74.0565 89.3493 77.6546 87.1439 81.1451C79.2997 93.56 70.3193 105.28 60.4683 116.163C55.7459 121.379 50.6386 126.246 46.0293 131.566C43.885 134.041 41.8784 136.636 40.2042 139.463C39.3001 140.989 38.4875 142.574 37.8033 144.217L37.6683 144.542C37.1073 145.885 36.556 147.068 35.5124 148.142C34.9934 148.677 33.9545 148.451 33.7896 147.686C33.0229 144.088 35.5646 140.203 37.4096 137.266C39.4009 134.096 41.7284 131.141 44.2027 128.336C44.9021 127.54 45.6139 126.757 46.3347 125.983C43.1094 126.87 39.7124 127.106 36.4257 127.687C33.0596 128.281 29.7148 128.987 26.4528 130.015C23.456 130.958 20.603 132.203 17.8756 133.763C16.5679 134.513 15.2883 135.336 14.0909 136.256C13.9776 136.342 13.8676 136.434 13.7577 136.523C15.7126 141.442 17.2155 146.545 18.7855 151.59C19.8574 155.039 20.9052 158.497 21.9461 161.958L24.2838 169.744C25.9702 175.358 27.375 181.465 30.3474 186.571C31.6303 188.773 33.365 190.765 35.3505 192.362C36.313 193.139 37.3607 193.73 38.4478 194.302C39.1321 194.663 39.7369 195.131 40.3722 195.559C40.7905 195.081 41.4249 194.785 42.2034 194.91L42.2905 194.926C44.7494 195.409 47.285 194.537 49.4718 193.46C51.7505 192.334 54.0204 191.013 55.9475 189.349C59.7382 186.072 62.8814 181.988 65.9454 178.047C76.8683 163.986 86.1698 148.586 93.751 132.475C97.6028 124.282 101.198 115.951 104.576 107.55C106.266 103.353 107.93 99.1467 109.552 94.9214L109.766 94.3565C111.219 90.4797 112.492 86.271 114.828 82.8522C114.846 82.8213 114.871 82.7971 114.898 82.7791C114.904 82.6809 114.935 82.5891 114.984 82.5096C115.708 81.3501 117.094 81.0102 118.295 80.472C119.648 79.8629 120.998 79.2574 122.348 78.652C123.411 78.1744 124.969 77.7706 125.766 76.8653C126.67 75.8466 126.973 74.0321 127.412 72.7716C128.409 69.9233 129.486 67.1087 130.565 64.2911C131.512 61.816 132.331 59.1605 133.659 56.8541C134.793 54.8864 136.414 53.8487 138.288 52.7154L138.695 52.4696C139.478 51.9915 140.313 51.4188 140.623 50.5239C141.131 49.0616 140.003 47.6631 138.806 46.9659C136.145 45.4206 132.96 47.2042 130.626 48.5662C128.28 49.9365 125.992 51.5825 123.484 52.6444C123.429 52.6655 123.39 52.5829 123.429 52.5462C125.445 50.6964 127.909 49.1725 130.225 47.6689L130.8 47.2932C132.336 46.2864 134.087 45.3047 135.938 45.0324C135.553 44.9039 135.672 44.4052 136.039 44.3596C139.68 43.9154 143.376 44.4847 146.98 43.6342C150.196 42.8755 153.004 41.0552 155.252 38.6597C157.372 36.4019 159.052 33.7892 160.619 31.1279C161.529 29.5795 162.418 28.0193 163.34 26.477C163.478 26.2448 163.616 25.9879 163.756 25.7122C162.106 25.3298 160.426 24.1002 159.305 23.1457C157.564 21.665 156.293 19.6642 155.408 17.5777C153.331 12.6796 153.495 7.07794 155.051 2.06671C155.145 1.76077 155.597 1.74548 155.686 2.06671C156.88 6.35899 156.987 11.0126 158.862 15.1057C159.614 16.7455 160.662 18.2201 161.951 19.4745C162.604 20.1078 163.264 20.6398 164.064 21.0806C164.923 21.5548 165.839 21.7106 166.52 22.4635C166.56 22.5063 166.597 22.5491 166.63 22.595C167.029 22.5411 167.373 22.5985 167.648 22.7706L167.705 22.8092L167.718 22.7911C166.487 21.9498 165.249 21.1174 163.939 20.3831C163.591 20.1873 163.845 19.7192 164.193 19.7804L165.055 19.9331C167.935 20.4471 170.87 21.0317 173.5 22.3136C176.417 23.7392 179.203 25.3852 181.86 27.2483C187.096 30.9131 191.861 35.2424 196.03 40.0854C203.722 49.0218 209.159 59.7663 212.522 71.0308C216.725 85.1069 218.35 99.8928 220.125 114.434C220.973 121.395 221.734 128.368 222.411 135.35L222.593 137.254C222.932 140.845 223.299 144.431 223.644 148.014C224.255 148.974 224.298 150.115 223.937 151.107C224.203 154.01 224.441 156.916 224.631 159.832C225.113 167.355 225.425 174.902 225.559 182.444C225.693 190.092 225.415 197.728 225.327 205.377C225.291 208.595 220.421 208.583 220.345 205.377C220.15 196.927 219.545 188.474 219.114 180.03C218.692 171.788 218.301 163.549 217.798 155.313C217.748 154.53 217.703 153.744 217.66 152.961C216.95 153.232 216.07 153.344 215.324 153.492L215.14 153.53C213.639 153.849 212.136 154.079 210.611 154.219L210.117 154.26C208.734 154.356 201.645 154.509 197.454 153.744C197.787 159.131 198.123 164.519 198.492 169.903C198.914 176.043 198.993 182.193 199.302 188.339C199.458 191.411 199.644 194.461 200.035 197.514C200.213 198.904 200.396 200.296 200.614 201.68L200.726 202.372C200.921 203.562 201.165 204.581 200.661 205.643C201.101 207.004 200.417 208.72 198.615 208.583C187.062 207.717 175.482 207.35 163.899 207.298C143.902 207.203 123.916 208.005 103.927 208.556L98.5249 208.703C79.8014 209.216 60.9855 209.763 42.3488 207.689C42.3088 210.079 37.8491 210.052 38.0874 207.387L38.1459 206.744C38.4142 203.844 38.7621 200.841 39.6605 198.049C38.9152 198.071 38.1668 198.04 37.4643 197.808C36.4657 197.481 35.5063 196.887 34.6388 196.299C32.7083 194.996 31.0771 193.39 29.6693 191.536C26.9046 187.898 25.0688 183.588 23.6179 179.283C22.0751 174.695 20.6636 170.055 19.3448 165.398L17.9255 160.355C16.1237 153.94 14.3545 147.429 13.2812 140.845C13.1654 140.998 13.0063 141.13 12.7958 141.225C7.05288 143.795 2.14112 138.523 1.16977 133.194C0.597906 130.051 0.731955 126.834 0.780095 123.653L0.784889 123.312C0.833762 119.647 0.849035 115.982 1.03567 112.32C1.65239 100.076 4.50231 88.2125 8.9345 76.8069C13.1101 66.0713 18.1563 55.2506 24.6567 45.7146C27.7446 41.1868 31.3062 36.8363 35.5979 33.3946C40.1248 29.7692 45.214 27.0124 50.5443 24.7672C55.9906 22.4726 61.6382 20.6584 67.2925 18.9452C73.53 17.0548 79.8407 15.43 86.2584 14.2889C86.7254 14.2063 87.1836 14.3439 87.4436 14.7722C87.6693 15.1485 87.8801 15.534 88.0847 15.9256C88.9614 15.3749 90.3084 15.2403 91.1854 14.9711C93.9373 14.1175 98.8887 13.6066 101.07 11.6609C103.557 9.44395 104.752 6.48813 105.864 3.43593ZM12.7894 137.376C12.4018 137.731 12.0135 138.086 11.6137 138.419C12.1357 138.199 12.6092 138.346 12.9574 138.67C12.8966 138.239 12.8413 137.807 12.7894 137.376ZM139.041 54.636C138.449 55.0028 137.862 55.37 137.328 55.8105C135.407 57.4012 134.758 59.998 133.958 62.2624L133.907 62.4065C132.923 65.1477 131.93 67.895 130.889 70.6148C130.562 71.4683 130.257 72.3831 129.929 73.3039C134.334 77.5439 138.837 81.7386 143.55 85.6332C152.176 92.7584 161.575 98.9475 171.563 103.989C176.698 106.584 182.001 108.945 187.456 110.778C189.427 111.439 191.433 112.02 193.471 112.452L193.474 112.421C193.483 112.347 193.602 112.314 193.615 112.403L193.627 112.485C194.5 112.666 195.38 112.819 196.263 112.938C197.936 113.161 199.629 113.262 201.318 113.247C202.366 113.238 203.404 113.109 204.437 113.161C199.864 109.034 195.267 104.938 190.657 100.86C181.921 93.1255 173.137 85.4527 164.336 77.792C160.429 74.39 156.478 71.0291 152.588 67.604L148.841 64.2894C145.529 61.3565 142.239 58.3769 139.37 55.0245L139.041 54.636ZM99.9945 77.373C99.7287 77.0456 100.132 76.6295 100.459 76.9079C102.411 78.5628 104.616 79.2881 106.959 80.1784C107.506 80.3864 107.463 81.2584 106.816 81.2492C104.094 81.2002 101.641 79.438 99.9945 77.373ZM127.339 36.622L127.534 36.5439C130.287 35.463 133.857 34.9256 136.023 37.433C137.593 39.2534 137.993 42.6982 135.947 44.286C135.455 44.6684 134.413 44.3411 134.725 43.5732C135.623 41.3796 135.813 38.5066 132.987 37.6625C130.536 36.9296 127.67 38.3592 125.438 39.3536L124.799 39.6359C120.446 41.5712 116.123 43.9165 113.456 48.0151C113.386 48.1191 113.199 48.0521 113.245 47.9263C115.374 42.0221 121.893 38.8431 127.339 36.622ZM95.0922 23.9779L94.034 23.5771C91.3429 22.5708 87.9918 21.5491 86.3225 24.4459C85.697 25.5287 85.1586 26.8689 84.9259 28.116L84.896 28.2854C84.8319 28.6706 84.7491 29.0839 85.0243 29.3807C85.4486 29.8457 86.8293 30.0718 87.3852 30.274L90.8811 31.5454L92.6269 32.1831C93.4211 32.4737 94.4474 32.7643 95.0339 33.4037C97.0866 30.7054 100.352 29.1696 103.434 27.8204C100.657 26.5263 97.9666 25.0612 95.0922 23.9779Z" fill="black"/>
</svg>
