<svg width="33" height="48" viewBox="0 0 33 48" fill="none" xmlns="http://www.w3.org/2000/svg">
<g filter="url(#filter0_dd_72_388)">
<path d="M25.6737 10.5855C26.4548 9.80442 26.4548 8.53808 25.6737 7.75704L25.3309 7.41421C24.5498 6.63316 23.2835 6.63316 22.5025 7.41421L7.41421 22.5025C6.63316 23.2835 6.63317 24.5498 7.41421 25.3309L22.5025 40.4191C23.2835 41.2002 24.5498 41.2002 25.3309 40.4191L25.6737 40.0763C26.4548 39.2952 26.4548 38.0289 25.6737 37.2479L13.7567 25.3309C12.9757 24.5498 12.9757 23.2835 13.7567 22.5025L25.6737 10.5855Z" fill="#EAE9E9"/>
<path d="M25.3201 8.11059C25.9059 8.69638 25.9059 9.64612 25.3201 10.2319L13.4032 22.1489C12.4268 23.1252 12.4269 24.7081 13.4032 25.6844L25.3201 37.6014C25.9059 38.1872 25.9059 39.137 25.3202 39.7227L24.9773 40.0656C24.3915 40.6514 23.4418 40.6514 22.856 40.0656L7.76777 24.9773C7.18198 24.3915 7.18198 23.4418 7.76777 22.856L22.856 7.76777C23.4418 7.18198 24.3915 7.18198 24.9773 7.76777L25.3201 8.11059Z" stroke="#86AFFF" stroke-opacity="0.6"/>
</g>
<defs>
<filter id="filter0_dd_72_388" x="0.828125" y="0.82843" width="31.4316" height="46.1765" filterUnits="userSpaceOnUse" color-interpolation-filters="sRGB">
<feFlood flood-opacity="0" result="BackgroundImageFix"/>
<feColorMatrix in="SourceAlpha" type="matrix" values="0 0 0 0 0 0 0 0 0 0 0 0 0 0 0 0 0 0 127 0" result="hardAlpha"/>
<feOffset dx="2" dy="2"/>
<feGaussianBlur stdDeviation="2"/>
<feColorMatrix type="matrix" values="0 0 0 0 0.776471 0 0 0 0 0.772549 0 0 0 0 0.772549 0 0 0 0.4 0"/>
<feBlend mode="multiply" in2="BackgroundImageFix" result="effect1_dropShadow_72_388"/>
<feColorMatrix in="SourceAlpha" type="matrix" values="0 0 0 0 0 0 0 0 0 0 0 0 0 0 0 0 0 0 127 0" result="hardAlpha"/>
<feOffset dx="-2" dy="-2"/>
<feGaussianBlur stdDeviation="2"/>
<feColorMatrix type="matrix" values="0 0 0 0 1 0 0 0 0 1 0 0 0 0 1 0 0 0 0.8 0"/>
<feBlend mode="overlay" in2="effect1_dropShadow_72_388" result="effect2_dropShadow_72_388"/>
<feBlend mode="normal" in="SourceGraphic" in2="effect2_dropShadow_72_388" result="shape"/>
</filter>
</defs>
</svg>
